<svg width="97" height="19" viewBox="0 0 97 19" fill="none" xmlns="http://www.w3.org/2000/svg">
<path d="M22.1089 18.415H26.393V1.12568H22.1089V18.415ZM43.8353 6.86329C43.8353 3.72673 41.6932 1.12568 37.2562 1.12568H28.3055V18.415H32.4366V4.79775H37.5622C38.6332 4.72125 39.5512 5.48626 39.6277 6.55728C39.6277 6.63378 39.6277 6.78678 39.6277 6.86329C39.7042 7.9343 38.8627 8.85232 37.7917 8.85232C37.6387 8.85232 37.5622 8.85232 37.4092 8.85232H33.8136L39.2452 18.415H43.6058L39.9337 12.1419C42.3053 11.5299 43.9118 9.31133 43.8353 6.86329ZM8.72116 1.12568L0 18.415H5.20209L6.50262 15.6609H12.4697L10.6337 11.9124H8.26215L10.4807 7.16929L16.0653 18.415H21.2674L12.1637 1.12568H8.72116ZM89.8126 7.7813C86.2935 7.01629 85.146 6.71028 85.146 5.56276C85.146 4.56824 86.4465 4.10924 88.4356 4.10924C90.3481 4.18574 92.2606 4.72125 93.9437 5.71576L95.3207 2.1967C92.9492 1.12568 90.2716 0.590173 87.6706 0.513672C83.463 0.513672 80.7854 2.96172 80.7854 6.02177C80.7854 9.08182 83.004 10.3823 87.2881 11.2239C90.6541 11.9124 91.4956 12.3714 91.4956 13.3659C91.4956 14.3604 90.1186 14.8194 88.3591 14.8194C86.064 14.7429 83.769 14.1309 81.627 13.1364L80.3264 16.6555C82.9275 17.956 85.758 18.721 88.6651 18.7975C93.8672 18.7975 96.0092 16.273 96.0092 13.3659C96.0092 10.7649 94.1732 8.77582 89.8126 7.7813ZM74.7418 1.04918V10.7649C74.7418 13.7484 72.9823 14.9724 70.9168 14.9724C68.8512 14.9724 67.0917 13.7484 67.0917 10.7649V1.04918H62.7311V10.8414C62.7311 17.038 66.4032 18.874 70.9168 18.874C75.4303 18.874 79.1024 17.038 79.1024 10.8414V1.04918H74.7418ZM59.0591 9.54083C60.1301 8.69932 60.6656 7.32229 60.5891 6.02177C60.5126 3.26772 58.294 1.12568 55.54 1.12568H45.4418V18.415H55.999C58.906 18.4915 61.2776 16.1965 61.4306 13.3659C61.3541 11.7594 60.5126 10.2293 59.0591 9.54083ZM49.5729 4.79775H55.54C56.3815 4.79775 57.07 5.40976 57.07 6.25127C57.07 7.09279 56.3815 7.7048 55.54 7.7048H49.5729V4.79775ZM55.693 14.7429H49.6494V11.3004H55.693C56.6875 11.3004 57.4525 12.0654 57.529 12.9834C57.4525 14.0544 56.611 14.8194 55.693 14.7429Z" fill="#B5B5B5"/>
</svg>
