<svg width="630" height="800" viewBox="0 0 630 800" fill="none" xmlns="http://www.w3.org/2000/svg">
<rect width="630" height="800" rx="16" fill="#FEEFE0"/>
<mask id="mask0_14_4" style="mask-type:alpha" maskUnits="userSpaceOnUse" x="0" y="0" width="630" height="800">
<rect width="630" height="800" rx="16" fill="#FEEFE0"/>
</mask>
<g mask="url(#mask0_14_4)">
<path d="M-128.277 556.047C-88.2599 753.779 105.087 881.512 303.58 841.34C502.073 801.169 630.537 608.306 590.519 410.575C550.502 212.844 357.155 85.1105 158.662 125.282C-39.8311 165.454 -168.295 358.316 -128.277 556.047Z" fill="#FEEFE0" stroke="white" stroke-width="1.5"/>
<path d="M-174.94 579.033C-141.733 743.115 17.8949 849.269 181.596 816.138C345.296 783.008 451.086 623.138 417.878 459.056C384.671 294.974 225.043 188.82 61.342 221.95C-102.359 255.081 -208.148 414.951 -174.94 579.033Z" fill="#FEEFE0" stroke="white" stroke-width="1.5"/>
<circle r="263.999" transform="matrix(-0.980129 0.198362 0.198362 0.980129 46.383 574.152)" fill="#FEEFE0" stroke="white" stroke-width="1.5"/>
<path d="M-243.814 654.266C-217.189 785.825 -88.6478 870.832 43.2936 844.13C175.235 817.427 260.606 689.127 233.981 557.568C207.355 426.009 78.8144 341.001 -53.127 367.704C-185.068 394.407 -270.44 522.706 -243.814 654.266Z" fill="#FEEFE0" stroke="white" stroke-width="1.5"/>
<path d="M-259.905 687.455C-235.882 806.158 -119.873 882.852 -0.787508 858.751C118.298 834.651 195.356 718.882 171.332 600.18C147.309 481.477 31.2995 404.782 -87.7857 428.883C-206.871 452.984 -283.929 568.752 -259.905 687.455Z" fill="#FEEFE0" stroke="white" stroke-width="1.5"/>
<circle r="203.225" transform="matrix(-0.980129 0.198362 0.198362 0.980129 -66.2685 676.061)" fill="#FEEFE0" stroke="white" stroke-width="1.5"/>
<path d="M-292.411 731.094C-269.912 842.263 -164.93 914.778 -57.9734 893.132C48.9834 871.485 117.507 763.856 95.0084 652.687C72.5097 541.518 -32.4722 469.004 -139.429 490.65C-246.386 512.296 -314.909 619.925 -292.411 731.094Z" fill="#FEEFE0" stroke="white" stroke-width="1.5"/>
<path d="M-318.932 754.992C-296.589 865.395 -191.125 937.184 -83.4026 915.383C24.3198 893.582 93.5693 786.433 71.2256 676.03C48.8819 565.628 -56.5815 493.838 -164.304 515.64C-272.026 537.441 -341.276 644.589 -318.932 754.992Z" fill="#FEEFE0" stroke="white" stroke-width="1.5"/>
<path d="M-347.256 769.989C-324.989 880.009 -219.285 951.436 -111.18 929.557C-3.07456 907.678 66.5378 800.771 44.2716 690.751C22.0054 580.731 -83.6987 509.304 -191.804 531.183C-299.909 553.062 -369.522 659.969 -347.256 769.989Z" fill="#FEEFE0" stroke="white" stroke-width="1.5"/>
</g>
</svg>
