<svg width="563" height="392" viewBox="0 0 563 392" fill="none" xmlns="http://www.w3.org/2000/svg">
<circle cx="197.5" cy="198.5" r="168.5" transform="rotate(-90 197.5 198.5)" fill="url(#paint0_linear_14_109)"/>
<circle cx="25" cy="85" r="18" fill="url(#paint1_linear_14_109)"/>
<path d="M31.5384 91.5501C32.907 90.3046 33.9159 88.7143 34.4596 86.9455C35.0033 85.1766 35.0619 83.2942 34.6292 81.495C34.1669 79.7179 33.2283 78.1006 31.9147 76.8175C30.6011 75.5343 28.9622 74.634 27.1747 74.2135C25.4013 73.7542 23.538 73.7723 21.7739 74.2661C20.0097 74.7599 18.4077 75.7118 17.1306 77.0251C15.8182 78.3725 14.8684 80.0302 14.3697 81.8438C13.8709 83.6573 13.8395 85.5676 14.2782 87.3966C14.5323 88.4791 15.011 89.496 15.6835 90.3814C16.356 91.2668 17.2072 92.0009 18.1818 92.5361C20.3471 93.671 22.8947 93.7363 25.2814 93.7934C25.4122 93.7812 25.5394 93.7434 25.6556 93.682C25.7719 93.6207 25.8749 93.5371 25.9588 93.436C26.0427 93.3349 26.1059 93.2182 26.1447 93.0926C26.1836 92.9671 26.1973 92.8351 26.1851 92.7043C26.173 92.5734 26.1351 92.4462 26.0738 92.33C26.0125 92.2138 25.9289 92.1108 25.8278 92.0268C25.7266 91.9429 25.61 91.8797 25.4844 91.8409C25.3589 91.8021 25.2269 91.7883 25.096 91.8005C23.3262 91.869 21.5577 91.6348 19.8667 91.108C19.0982 90.826 18.399 90.3829 17.8158 89.8085C17.2327 89.234 16.7792 88.5415 16.4857 87.7774C15.9648 86.3625 15.8157 84.8376 16.0527 83.3486C16.2897 81.8596 16.9049 80.4564 17.8394 79.2731C18.7281 78.0812 19.9172 77.1465 21.2853 76.5645C22.6533 75.9825 24.1514 75.774 25.6264 75.9603C27.0733 76.1134 28.4548 76.6432 29.6329 77.4969C30.8111 78.3507 31.7448 79.4984 32.3408 80.8257C32.9518 82.3564 33.0937 84.0343 32.7486 85.6459C32.4035 87.2575 31.587 88.7301 30.4029 89.8764C30.2944 89.9516 30.2018 90.0476 30.1306 90.1587C30.0593 90.2698 30.0108 90.394 29.9878 90.524C29.9648 90.654 29.9677 90.7872 29.9965 90.9161C30.0252 91.0449 30.0792 91.1668 30.1552 91.2747C30.3073 91.4908 30.5386 91.6379 30.7987 91.684C31.0589 91.73 31.3267 91.6713 31.5436 91.5206L31.5384 91.5501Z" fill="white"/>
<path d="M29.5055 91.1596C29.5929 92.2899 29.9866 93.3751 30.6444 94.2986C31.3021 95.222 32.199 95.9488 33.2387 96.4009C33.3574 96.4572 33.4861 96.4897 33.6173 96.4963C33.7486 96.503 33.8799 96.4837 34.0037 96.4396C34.1275 96.3955 34.2414 96.3275 34.3389 96.2394C34.4364 96.1513 34.5156 96.0448 34.5719 95.9261C34.6283 95.8074 34.6607 95.6787 34.6674 95.5475C34.674 95.4162 34.6548 95.2849 34.6107 95.1611C34.5666 95.0373 34.4985 94.9234 34.4104 94.8259C34.3223 94.7284 34.2159 94.6492 34.0972 94.5929C33.8859 94.5018 33.6805 94.3975 33.4821 94.2808C33.2795 94.1637 33.6437 94.4008 33.4821 94.2808L33.3038 94.1985C33.2137 94.1345 33.1276 94.065 33.0461 93.9904C32.8684 93.8472 32.7236 93.6895 32.5575 93.5382C32.7659 93.7376 32.6339 93.6228 32.5575 93.5382L32.4486 93.4072C32.3718 93.3176 32.3003 93.2236 32.2345 93.1256L32.0499 92.8491L31.9642 92.7019C31.9254 92.6341 31.8485 92.4377 31.9642 92.7019C31.8792 92.4939 31.7808 92.3039 31.6958 92.0959L31.5987 91.7841C31.58 91.7321 31.5657 91.6786 31.5559 91.6242C31.4987 91.4313 31.5998 91.8351 31.5559 91.6242C31.512 91.4133 31.4768 91.1532 31.4578 90.9163C31.4574 90.7773 31.4279 90.64 31.3714 90.5131C31.3149 90.3862 31.2326 90.2724 31.1296 90.1791C31.0267 90.0857 30.9055 90.0148 30.7736 89.971C30.6418 89.9271 30.5023 89.9112 30.3639 89.9242C30.2256 89.9373 30.0915 89.979 29.9702 90.0468C29.8489 90.1145 29.743 90.2068 29.6594 90.3177C29.5757 90.4287 29.5161 90.5558 29.4844 90.6911C29.4526 90.8264 29.4493 90.9668 29.4748 91.1034L29.5055 91.1596Z" fill="white"/>
<path d="M24.5946 93.6007C25.8084 94.649 27.218 95.4462 28.7419 95.9462C30.2658 96.4462 31.8738 96.639 33.4727 96.5135C33.6035 96.5013 33.7307 96.4635 33.847 96.4021C33.9632 96.3408 34.0662 96.2572 34.1501 96.1561C34.2341 96.055 34.2972 95.9383 34.3361 95.8127C34.3749 95.6872 34.3886 95.5552 34.3765 95.4244C34.3643 95.2935 34.3265 95.1663 34.2651 95.0501C34.2038 94.9339 34.1202 94.8309 34.0191 94.7469C33.918 94.663 33.8013 94.5998 33.6757 94.561C33.5502 94.5222 33.4182 94.5084 33.2874 94.5206C31.9526 94.6248 30.6103 94.4629 29.3386 94.0441C28.0669 93.6254 26.891 92.9582 25.8792 92.0814C25.6749 91.9417 25.4259 91.8827 25.1806 91.9159C24.9353 91.9491 24.711 92.0721 24.5512 92.2612C24.3913 92.4502 24.3073 92.6918 24.3153 92.9393C24.3233 93.1867 24.4228 93.4224 24.5946 93.6007Z" fill="white"/>
<path d="M19.6895 82.1296C23.1595 83.0402 26.6832 83.732 30.2399 84.2011C31.5003 84.4243 31.8589 82.4567 30.5887 82.2318C27.032 81.7627 23.5083 81.0708 20.0383 80.1602C19.7771 80.114 19.5083 80.1734 19.2909 80.3253C19.0736 80.4773 18.9255 80.7094 18.8792 80.9705C18.833 81.2317 18.8923 81.5005 19.0443 81.7179C19.1963 81.9352 19.4284 82.0833 19.6895 82.1296Z" fill="white"/>
<path d="M18.9934 86.749L24.5539 87.8657C24.815 87.912 25.0839 87.8526 25.3012 87.7006C25.5186 87.5487 25.6667 87.3166 25.7129 87.0554C25.7592 86.7943 25.6998 86.5254 25.5478 86.3081C25.3959 86.0907 25.1638 85.9426 24.9026 85.8964L19.3422 84.7796C19.081 84.7334 18.8122 84.7927 18.5948 84.9447C18.3775 85.0967 18.2294 85.3287 18.1831 85.5899C18.1369 85.8511 18.1963 86.1199 18.3482 86.3373C18.5002 86.5546 18.7323 86.7027 18.9934 86.749Z" fill="white"/>
<circle cx="325.045" cy="369.045" r="18" transform="rotate(15 325.045 369.045)" fill="url(#paint2_linear_14_109)"/>
<path d="M328.513 364.027C324.744 364.562 321.955 367.365 320.243 370.609C320.133 370.852 320.125 371.128 320.219 371.377C320.313 371.626 320.502 371.827 320.744 371.937C320.987 372.046 321.263 372.055 321.512 371.961C321.761 371.867 321.962 371.678 322.072 371.435C322.77 370.054 323.731 368.822 324.902 367.81C325.987 366.87 327.31 366.247 328.726 366.009C328.856 365.993 328.982 365.951 329.097 365.887C329.211 365.822 329.312 365.736 329.393 365.632C329.474 365.529 329.533 365.41 329.569 365.284C329.604 365.157 329.614 365.025 329.598 364.894C329.582 364.764 329.54 364.638 329.476 364.523C329.411 364.409 329.325 364.308 329.221 364.227C329.118 364.146 328.999 364.087 328.873 364.051C328.746 364.016 328.614 364.006 328.483 364.022L328.513 364.027Z" fill="white"/>
<path d="M320.293 371.435C320.562 371.964 320.868 372.472 321.211 372.956C321.479 373.4 321.404 373.631 321.056 374.004C320.708 374.378 320.029 374.864 319.513 375.283C319.236 375.515 318.955 375.776 318.649 375.994C318.649 375.994 318.488 376.132 318.415 376.142C318.621 376.121 318.423 376.092 318.344 376.01C317.955 375.427 317.57 374.885 317.211 374.235C317.028 373.986 316.882 373.713 316.775 373.423C316.722 373.062 316.776 372.694 316.931 372.364C317.36 371.085 317.971 369.875 318.745 368.771C320.25 366.45 322.357 364.581 324.84 363.363C326.176 362.756 327.555 362.25 328.966 361.849C330.138 361.507 331.79 361.134 332.757 362.186C333.177 362.698 333.501 363.28 333.716 363.905C333.845 364.197 334.001 364.169 333.751 364.355C333.501 364.54 333.076 364.821 332.748 365.056L331.701 365.781C331.587 365.865 331.167 366.248 330.997 366.233C330.828 366.218 330.573 365.685 330.488 365.571L329.645 364.436C328.912 363.378 327.311 364.567 328.044 365.625C328.478 366.47 329.048 367.237 329.731 367.896C330.123 368.16 330.591 368.289 331.063 368.264C331.536 368.239 331.987 368.061 332.349 367.757C333.166 367.22 333.986 366.664 334.778 366.094C335.192 365.843 335.504 365.455 335.66 364.998C335.816 364.54 335.807 364.043 335.633 363.592C335.147 361.882 334.144 360.188 332.387 359.696C330.63 359.204 328.319 359.863 326.557 360.503C324.675 361.078 322.899 361.956 321.3 363.103C319.841 364.291 318.541 365.662 317.433 367.182C316.287 368.69 315.428 370.397 314.901 372.216C314.765 372.693 314.737 373.195 314.819 373.684C314.9 374.173 315.09 374.638 315.373 375.046C315.791 375.902 316.314 376.703 316.932 377.429C317.278 377.801 317.748 378.035 318.254 378.085C318.761 378.136 319.268 378 319.681 377.703C320.583 377.06 321.443 376.36 322.255 375.607C322.653 375.317 322.968 374.929 323.171 374.48C323.374 374.032 323.456 373.538 323.411 373.048C323.255 372.115 322.535 371.514 322.181 370.693C321.679 369.507 319.82 370.254 320.334 371.431L320.293 371.435Z" fill="white"/>
<circle cx="303" cy="40" r="18" fill="url(#paint3_linear_14_109)"/>
<path d="M293.333 35.9355C298.381 34.2249 303.396 32.3879 308.486 30.8005C309.045 30.6111 309.564 30.6781 309.75 31.2274C310.19 32.5249 310.629 33.8225 311.069 35.12C311.904 37.5825 312.741 40.0544 313.576 42.5169C313.778 43.1135 313.977 43.7007 313.511 44.1964C312.803 44.943 311.539 45.139 310.602 45.4568L299.729 49.1411C299.076 49.3626 297.587 50.1732 297.006 49.61C296.764 49.3185 296.603 48.9697 296.536 48.5973C296.34 48.0195 296.147 47.4513 295.952 46.8736L294.467 42.7098L292.938 38.54C292.806 38.1517 292.674 37.7634 292.543 37.3751C292.411 36.9868 292.313 36.9461 292.341 36.7784C292.411 36.3005 292.963 36.0606 293.361 35.9258C293.612 35.8407 293.819 35.6593 293.937 35.4215C294.054 35.1837 294.072 34.909 293.987 34.6578C293.902 34.4066 293.721 34.1995 293.483 34.0821C293.245 33.9647 292.97 33.9465 292.719 34.0316C292.065 34.18 291.477 34.5362 291.043 35.0469C290.609 35.5576 290.352 36.1953 290.311 36.8644C290.387 37.4263 290.547 37.9735 290.787 38.4875L291.585 40.6876L293.125 44.9807C293.593 46.3635 294.213 47.7265 294.606 49.135C294.797 50.0853 295.35 50.9241 296.148 51.4737C296.584 51.7027 297.066 51.83 297.558 51.8462C298.05 51.8624 298.539 51.767 298.989 51.5672C300.22 51.1499 301.451 50.7327 302.673 50.3187L309.35 48.0561C310.647 47.6164 311.996 47.2334 313.271 46.7274C313.819 46.5366 314.316 46.2237 314.726 45.8125C315.135 45.4012 315.446 44.9023 315.634 44.3534C315.8 43.3801 315.674 42.3794 315.272 41.4775C314.778 40.019 314.283 38.5604 313.789 37.1019L312.31 32.7358C312.072 32.0349 311.831 31.3246 311.591 30.6143C311.453 30.1305 311.181 29.6956 310.806 29.3596C310.304 29.0067 309.716 28.7956 309.103 28.7486C308.491 28.7016 307.877 28.8203 307.327 29.0922L292.694 34.0507C292.468 34.1534 292.289 34.3362 292.19 34.5637C292.092 34.7912 292.081 35.0472 292.161 35.282C292.24 35.5168 292.404 35.7137 292.621 35.8344C292.837 35.9552 293.091 35.9912 293.333 35.9355Z" fill="white"/>
<path d="M292.059 37.3173L302 40.8856C302.237 41.0018 302.51 41.0195 302.761 40.9347C303.011 40.8499 303.217 40.6696 303.335 40.4331C303.394 40.3149 303.429 40.1863 303.438 40.0546C303.447 39.9229 303.43 39.7907 303.387 39.6657C303.345 39.5406 303.278 39.4252 303.191 39.3261C303.104 39.227 302.998 39.1461 302.879 39.0882L292.951 35.5261C292.833 35.4672 292.704 35.4322 292.572 35.4233C292.441 35.4143 292.309 35.4315 292.184 35.4739C292.059 35.5162 291.943 35.5829 291.844 35.6701C291.745 35.7573 291.664 35.8633 291.606 35.9819C291.49 36.2191 291.472 36.4927 291.557 36.7429C291.642 36.9931 291.822 37.1996 292.059 37.3173Z" fill="white"/>
<path d="M308.53 30.0886C306.724 33.3504 304.651 36.4576 302.334 39.3787C301.532 40.3788 303.035 41.6963 303.833 40.6867C306.256 37.6363 308.423 34.3911 310.312 30.9842C310.98 29.8393 309.144 28.9724 308.521 30.0918L308.53 30.0886Z" fill="white"/>
<circle cx="69.5" cy="359.5" r="9.5" fill="url(#paint4_linear_14_109)"/>
<circle cx="339" cy="91" r="4" fill="url(#paint5_linear_14_109)"/>
<circle cx="314" cy="320" r="4" fill="url(#paint6_linear_14_109)"/>
<circle cx="492" cy="4" r="4" fill="url(#paint7_linear_14_109)"/>
<circle cx="4" cy="20" r="4" fill="url(#paint8_linear_14_109)"/>
<circle cx="74" cy="32" r="4" fill="url(#paint9_linear_14_109)"/>
<g filter="url(#filter0_d_14_109)">
<rect x="49" y="41" width="478" height="298" rx="20" fill="white"/>
</g>
<g filter="url(#filter1_d_14_109)">
<circle cx="373" cy="298" r="12" fill="url(#paint10_linear_14_109)"/>
</g>
<g clip-path="url(#clip0_14_109)">
<path d="M371.352 303.42V302.549H370.705C369.187 302.549 367.968 301.329 367.968 299.811V296.452C367.968 294.934 369.187 293.714 370.705 293.714H375.234C376.752 293.714 377.972 294.934 377.972 296.452V299.811C377.972 301.329 376.752 302.549 375.234 302.549H372.821L371.352 303.42ZM370.705 294.461C369.61 294.461 368.714 295.357 368.714 296.452V299.811C368.714 300.906 369.61 301.802 370.705 301.802H371.352V302.549L372.621 301.802H375.234C376.329 301.802 377.225 300.906 377.225 299.811V296.452C377.225 295.357 376.329 294.461 375.234 294.461H370.705Z" fill="white"/>
</g>
<g filter="url(#filter2_d_14_109)">
<circle cx="309" cy="298" r="12" fill="url(#paint11_linear_14_109)"/>
</g>
<path d="M304.217 297.574H306.546C306.663 297.574 306.74 297.651 306.74 297.768V301.048C306.74 301.339 306.508 301.572 306.216 301.572C305.11 301.591 304.198 300.66 304.217 299.553" stroke="white" stroke-miterlimit="10"/>
<path d="M313.923 299.573V297.069C313.923 294.39 311.749 292.217 309.07 292.217C306.392 292.217 304.218 294.39 304.218 297.069V299.573" stroke="white" stroke-miterlimit="10"/>
<path d="M313.922 297.574H311.593C311.476 297.574 311.399 297.651 311.399 297.768V301.048C311.399 301.339 311.632 301.572 311.923 301.572C313.029 301.572 313.941 300.66 313.922 299.534" stroke="white" stroke-miterlimit="10"/>
<path d="M311.923 301.591C311.923 301.591 311.573 303.649 308.468 303.649" stroke="white" stroke-miterlimit="10" stroke-linecap="round"/>
<g filter="url(#filter3_d_14_109)">
<circle cx="277.472" cy="298" r="12" fill="url(#paint12_linear_14_109)"/>
</g>
<path d="M276.425 294.463C276.209 295.202 275.527 295.741 274.718 295.741C273.91 295.741 273.227 295.202 273.011 294.463H276.425Z" stroke="white"/>
<path d="M278.343 298V294.463H281.314L278.343 298Z" stroke="white"/>
<path d="M278.402 301.253C278.618 300.514 279.3 299.975 280.109 299.975C280.917 299.975 281.6 300.514 281.816 301.253L278.402 301.253Z" stroke="white"/>
<path d="M276.484 297.716L276.484 301.253L273.513 301.253L276.484 297.716Z" stroke="white"/>
<g filter="url(#filter4_d_14_109)">
<circle cx="405" cy="298" r="12" fill="url(#paint13_linear_14_109)"/>
</g>
<g clip-path="url(#clip1_14_109)">
<path d="M408.628 293.391C409.101 294.038 409.051 294.984 408.454 295.556L401.386 302.623C400.914 301.976 400.963 301.031 401.561 300.458L408.628 293.391ZM408.628 292.47C408.529 292.47 408.429 292.52 408.329 292.595L401.013 299.911C400.067 300.857 400.067 302.399 401.013 303.345L401.063 303.395C401.138 303.47 401.237 303.519 401.362 303.519C401.461 303.519 401.561 303.47 401.66 303.395L408.976 296.079C409.922 295.133 409.922 293.59 408.976 292.644L408.927 292.595C408.852 292.52 408.728 292.47 408.628 292.47Z" fill="white"/>
<path d="M403.377 293.117C403.925 293.665 403.925 294.561 403.377 295.133L401.137 297.373C400.59 296.825 400.59 295.929 401.137 295.357L403.377 293.117ZM403.377 292.221C403.278 292.221 403.203 292.246 403.128 292.321L400.615 294.859C399.769 295.705 399.769 297.074 400.615 297.92L400.864 298.194C400.938 298.268 401.038 298.293 401.113 298.293C401.212 298.293 401.287 298.268 401.361 298.194L403.875 295.68C404.721 294.834 404.721 293.466 403.875 292.619L403.601 292.346C403.576 292.246 403.477 292.221 403.377 292.221Z" fill="white"/>
<path d="M408.877 298.617C409.424 299.164 409.424 300.06 408.877 300.633L406.637 302.872C406.363 302.598 406.239 302.25 406.239 301.877C406.239 301.504 406.388 301.13 406.662 300.881L408.877 298.617ZM408.877 297.721C408.777 297.721 408.703 297.746 408.628 297.82L406.09 300.334C405.244 301.18 405.244 302.549 406.09 303.395L406.363 303.669C406.438 303.743 406.538 303.768 406.612 303.768C406.712 303.768 406.786 303.743 406.861 303.669L409.375 301.155C410.221 300.309 410.221 298.94 409.375 298.094L409.101 297.82C409.051 297.746 408.976 297.721 408.877 297.721Z" fill="white"/>
</g>
<g filter="url(#filter5_d_14_109)">
<circle cx="437" cy="298" r="12" fill="url(#paint14_linear_14_109)"/>
</g>
<path d="M438.884 301.178L437.272 298.55L438.706 295.861L441.799 301.178H438.884Z" stroke="white"/>
<path d="M432.817 301.178L437.22 293.245L438.609 295.703L435.456 301.178H432.817Z" stroke="white"/>
<g filter="url(#filter6_d_14_109)">
<circle cx="341" cy="298" r="12" fill="url(#paint15_linear_14_109)"/>
</g>
<path d="M341.069 300.433C340.87 300.433 340.696 300.259 340.696 300.06V293.341C340.696 293.142 340.87 292.968 341.069 292.968C341.268 292.968 341.443 293.142 341.443 293.341V300.06C341.443 300.259 341.268 300.433 341.069 300.433Z" fill="white"/>
<path d="M343.558 299.986C343.359 299.986 343.185 299.812 343.185 299.612V293.789C343.185 293.59 343.359 293.416 343.558 293.416C343.757 293.416 343.931 293.59 343.931 293.789V299.588C343.931 299.812 343.757 299.986 343.558 299.986Z" fill="white"/>
<path d="M346.046 299.413C345.847 299.413 345.673 299.239 345.673 299.04V294.362C345.673 294.162 345.847 293.988 346.046 293.988C346.246 293.988 346.42 294.162 346.42 294.362V299.04C346.42 299.239 346.246 299.413 346.046 299.413Z" fill="white"/>
<path d="M338.581 293.416C338.78 293.416 338.954 293.59 338.954 293.789V299.588C338.954 299.787 338.78 299.961 338.581 299.961C338.382 299.961 338.208 299.787 338.208 299.588V293.789C338.208 293.59 338.382 293.416 338.581 293.416Z" fill="white"/>
<path d="M336.092 293.988C336.291 293.988 336.466 294.162 336.466 294.362V299.04C336.466 299.239 336.291 299.413 336.092 299.413C335.893 299.413 335.719 299.239 335.719 299.04V294.362C335.719 294.162 335.893 293.988 336.092 293.988Z" fill="white"/>
<path d="M336.092 301.155C336.092 301.155 340.373 304.39 346.046 301.155" stroke="white" stroke-miterlimit="10" stroke-linecap="round"/>
<text fill="#BEC2C9" xml:space="preserve" style="white-space: pre" font-family="Open Sans" font-size="16" letter-spacing="0em"><tspan x="462" y="308.207">...</tspan></text>
<path opacity="0.06" d="M90.4722 274H476.472" stroke="black" stroke-width="0.5"/>
<path opacity="0.06" d="M90.4722 225H476.472" stroke="black" stroke-width="0.5"/>
<path opacity="0.06" d="M90.4722 175H476.472" stroke="black" stroke-width="0.5"/>
<path opacity="0.06" d="M90.4722 127H476.472" stroke="url(#paint16_linear_14_109)" stroke-width="0.5"/>
<path d="M89.4487 249C89.4487 249 103.766 251.5 144.482 243.5C184.997 235.54 181.619 225 211.149 225C244.289 225 252.382 216.5 268.867 216.5C302.364 216.5 295.211 210.003 323.006 206.503C356.153 202.329 389.511 180.501 413.386 175.001C455.7 165.254 445.601 158.001 476.026 151.001" stroke="url(#paint17_linear_14_109)" stroke-dasharray="3 3"/>
<path d="M89.4723 263C89.4723 263 102.256 256.5 142.972 248.5C183.487 240.54 172.472 243 200.972 235C232.879 226.044 253.987 223.5 270.472 223.5C303.969 223.5 294.677 205.5 322.472 202C355.619 197.826 384.472 191 412.472 173C448.998 149.519 445.601 146.5 476.026 139.5" stroke="url(#paint18_linear_14_109)" stroke-dasharray="3 3"/>
<path d="M89.4723 259.5C89.4723 259.5 105.256 252 145.972 244C186.487 236.04 180.972 240 209.472 232C241.379 223.044 257.592 210.151 273.972 212C304.972 215.5 303.177 199 330.972 195.5C364.119 191.326 375.59 196.599 406.972 185.5C447.972 171 445.601 183 476.026 176" stroke="url(#paint19_linear_14_109)" stroke-dasharray="3 3"/>
<path d="M89.4723 269C89.4723 269 106.972 255 144.972 251.5C183.011 247.996 183.972 241.5 213.472 237C246.234 232.003 279.092 227.651 295.472 229.5C326.472 233 321.177 219.5 348.972 216C382.119 211.826 377.472 199.5 409.972 194C452.851 186.744 447.601 192 478.026 185" stroke="url(#paint20_linear_14_109)" stroke-dasharray="3 3"/>
<path d="M90.3424 232.5C90.3424 232.5 109.582 220 150.298 212C190.812 204.04 183.799 193.5 214.727 193.5C247.868 193.5 249.697 184.501 266.181 184.501C299.678 184.501 313.554 168.501 341.349 165.001C374.496 160.828 385.483 163 409.358 157.5C451.672 147.753 446.942 141.5 474.682 126" stroke="url(#paint21_linear_14_109)" stroke-dasharray="3 3"/>
<path d="M89.8951 254.5C89.8951 254.5 120.32 240 161.036 232C201.551 224.04 203.485 210.5 234.414 210.5C267.555 210.5 276.472 204.5 297.949 195C329.094 181.223 326.082 188 353.877 184.5C387.024 180.326 385.483 174 409.358 168.5C451.672 158.753 444.257 162.5 471.998 147" stroke="url(#paint22_linear_14_109)" stroke-dasharray="3 3"/>
<path d="M140 261C97 270.5 89 273.573 89 273.573H476.472V130.504C476.472 113.503 449.533 190.256 407.219 200.003C383.344 205.503 363.751 227.83 330.604 232.003C302.809 235.503 299.5 236 268 238.5C251.567 239.804 233 244.5 201.962 247.503C170.583 250.54 180.205 252.117 140 261Z" fill="url(#paint23_linear_14_109)"/>
<path d="M89 273.573C89 273.573 91.5 272.5 129 263.5C169.038 253.891 171.279 251.386 201.962 247.503C241.5 242.5 241 240.25 277 238C309 236 302.809 235.503 330.604 232.003C363.751 227.829 383.796 207.19 407.219 200.003C447.972 187.5 468.472 132.5 476.472 127.5" stroke="url(#paint24_linear_14_109)" stroke-width="2"/>
<circle cx="427.5" cy="189.5" r="3.5" fill="white" stroke="url(#paint25_linear_14_109)" stroke-width="2"/>
<circle cx="301.972" cy="236.5" r="3.5" fill="white" stroke="url(#paint26_linear_14_109)" stroke-width="2"/>
<circle cx="193.972" cy="248.5" r="3.5" fill="white" stroke="url(#paint27_linear_14_109)" stroke-width="2"/>
<g filter="url(#filter7_d_14_109)">
<circle cx="475.472" cy="120.352" r="15" fill="url(#paint28_linear_14_109)"/>
</g>
<g filter="url(#filter8_d_14_109)">
<path d="M479.827 113.093H470.876C469.424 113.093 468.214 114.92 468.214 116.13V130.513L471.214 127.658H480.795C482.005 127.658 482.972 126.884 482.972 125.432V116.13C482.972 114.437 481.763 113.093 479.827 113.093Z" fill="white"/>
<circle cx="472.085" cy="120.351" r="0.967742" fill="#FA9531"/>
<circle cx="475.472" cy="120.351" r="0.967742" fill="#FA9531"/>
<circle cx="478.859" cy="120.351" r="0.967742" fill="#FA9531"/>
</g>
<path d="M462.748 87.3435C460.957 89.9428 463.094 91.1206 463.094 91.1206C462.094 90.4317 461.694 90.1562 459.117 91.3293C460.695 89.4674 458.268 87.8041 459.233 88.1653C460.17 88.5164 461.909 87.8471 462.748 87.3435Z" stroke="url(#paint29_linear_14_109)" stroke-linejoin="round"/>
<path d="M493.296 110.199C491.847 108.77 490.859 109.995 490.859 109.995C491.409 109.437 491.628 109.214 491.173 107.447C492.178 108.657 493.507 107.303 493.169 107.875C492.841 108.431 493.07 109.61 493.296 110.199Z" stroke="url(#paint30_linear_14_109)" stroke-linejoin="round"/>
<circle cx="466.018" cy="103.546" r="1.26239" transform="rotate(75 466.018 103.546)" fill="url(#paint31_linear_14_109)"/>
<path d="M499.873 104.765C499.199 104.946 498.507 104.546 498.327 103.873C498.146 103.199 498.546 102.507 499.219 102.327C499.893 102.146 500.585 102.546 500.765 103.219C500.946 103.893 500.546 104.585 499.873 104.765Z" fill="url(#paint32_linear_14_109)"/>
<path d="M492.349 96.4274L492.768 96.2713L489.729 102.155L489.7 102.212L489.678 102.271L488.003 106.864L481.924 103.457L481.786 103.38L481.631 103.349L474.355 101.896L476.034 97.2948L476.056 97.2351L476.07 97.1731L477.533 90.7143L477.753 91.1033L479.614 94.3944L480.036 95.1412L480.838 94.8374L484.371 93.4997L485.272 93.1585L485.742 94L487.584 97.2979L488.002 98.0469L488.806 97.7474L492.349 96.4274ZM493.202 95.4308L492.802 94.8934C492.51 94.5007 492.418 93.9787 492.595 93.4931C492.876 92.7231 493.733 92.3243 494.503 92.6051C495.273 92.886 495.671 93.743 495.391 94.5129C495.157 95.1535 494.522 95.5402 493.868 95.4855L493.202 95.4298L493.202 95.4308ZM478.394 89.6379L477.742 89.7917L477.742 89.7904L477.197 89.4046C476.662 89.0255 476.425 88.3206 476.658 87.68C476.939 86.9101 477.796 86.5112 478.566 86.792C479.336 87.0729 479.735 87.9299 479.454 88.6999C479.277 89.1854 478.87 89.5255 478.394 89.6379ZM486.376 92.5414L485.411 92.779L484.825 91.9755C484.54 91.5842 484.451 91.0676 484.627 90.5866C484.907 89.8167 485.764 89.4178 486.534 89.6986C487.304 89.9795 487.703 90.8365 487.422 91.6064C487.247 92.0875 486.846 92.4257 486.376 92.5414Z" stroke="url(#paint33_linear_14_109)" stroke-width="2"/>
<circle cx="478.034" cy="100.483" r="0.766032" transform="rotate(20.0401 478.034 100.483)" fill="url(#paint34_linear_14_109)"/>
<circle cx="482.352" cy="102.057" r="0.766032" transform="rotate(20.0401 482.352 102.057)" fill="url(#paint35_linear_14_109)"/>
<circle cx="486.19" cy="103.458" r="0.766032" transform="rotate(20.0401 486.19 103.458)" fill="url(#paint36_linear_14_109)"/>
<g clip-path="url(#clip2_14_109)">
<path d="M128.625 160.865C134.074 159.968 137.765 154.824 136.868 149.374C135.971 143.925 130.826 140.234 125.377 141.131C119.927 142.028 116.237 147.173 117.134 152.622C118.031 158.072 123.175 161.762 128.625 160.865Z" fill="#FFCE00"/>
<path d="M127.115 152.732C126.353 152.732 125.661 153.055 125.199 153.563H129.009C128.547 153.055 127.878 152.732 127.115 152.732Z" fill="white"/>
<path d="M128.663 157.258C129.286 156.796 129.679 156.081 129.679 155.249C129.679 154.602 129.425 154.025 129.032 153.563H125.199C124.783 154.002 124.552 154.602 124.552 155.249C124.552 156.081 124.945 156.796 125.568 157.258C126.007 157.004 126.538 156.843 127.116 156.843C127.67 156.843 128.201 157.004 128.663 157.258Z" fill="#562912"/>
<path d="M128.663 157.258C128.224 157.004 127.693 156.843 127.115 156.843C126.538 156.843 126.007 156.981 125.568 157.258C126.007 157.582 126.538 157.766 127.115 157.766C127.693 157.766 128.224 157.582 128.663 157.258Z" fill="#CC342F"/>
<path d="M120.949 146.843C120.88 146.843 120.788 146.82 120.741 146.75C120.649 146.635 120.649 146.45 120.765 146.358C121.411 145.803 122.243 145.457 123.074 145.388C123.236 145.365 123.374 145.48 123.374 145.642C123.397 145.803 123.282 145.942 123.12 145.942C122.381 146.011 121.688 146.311 121.134 146.796C121.088 146.82 121.019 146.843 120.949 146.843Z" fill="#562912"/>
<path d="M133.028 146.843C132.958 146.843 132.889 146.82 132.843 146.773C132.289 146.288 131.573 145.988 130.834 145.919C130.672 145.896 130.557 145.757 130.58 145.619C130.603 145.457 130.741 145.342 130.88 145.365C131.734 145.434 132.543 145.78 133.189 146.335C133.305 146.427 133.328 146.612 133.213 146.727C133.189 146.797 133.12 146.843 133.028 146.843Z" fill="#562912"/>
<path d="M133.374 149.453C133.374 150.654 132.427 151.647 131.272 151.647C130.118 151.647 129.171 150.677 129.171 149.453C129.171 148.252 130.118 147.259 131.272 147.259C132.427 147.282 133.374 148.252 133.374 149.453Z" fill="white"/>
<path d="M132.15 149.453C132.15 149.961 131.757 150.377 131.249 150.377C130.741 150.377 130.349 149.961 130.349 149.453C130.349 148.945 130.741 148.529 131.249 148.529C131.757 148.529 132.15 148.945 132.15 149.453Z" fill="#562912"/>
<path d="M124.852 149.453C124.852 150.654 123.905 151.647 122.751 151.647C121.596 151.647 120.649 150.677 120.649 149.453C120.649 148.252 121.596 147.259 122.751 147.259C123.905 147.282 124.852 148.252 124.852 149.453Z" fill="white"/>
<path d="M123.628 149.453C123.628 149.961 123.235 150.377 122.727 150.377C122.219 150.377 121.827 149.961 121.827 149.453C121.827 148.945 122.219 148.529 122.727 148.529C123.235 148.529 123.628 148.945 123.628 149.453Z" fill="#562912"/>
</g>
<g clip-path="url(#clip3_14_109)">
<path d="M199.094 90.4843L198.799 90.6527V90.2738C198.799 90.1896 198.799 90.2317 198.799 90.2317L198.757 90.1053L198.63 89.8527C198.546 89.6843 198.462 89.5159 198.377 89.3475C198.209 89.0106 197.998 88.6738 197.787 88.3369C197.365 87.6632 196.902 87.0317 196.396 86.4422C195.384 85.2632 194.161 84.2527 192.812 83.4106C190.156 81.7685 186.994 80.9685 183.874 80.9685C180.755 80.9685 177.635 81.7685 174.979 83.3264C172.281 84.8422 170.088 87.158 168.571 89.8527L168.233 90.4843L167.643 90.1053C166.041 89.0948 164.27 88.3369 162.415 88.0001C160.56 87.6632 158.663 87.7053 156.892 88.2106C156.007 88.4632 155.164 88.8422 154.363 89.3475C153.604 89.8106 152.972 90.4422 152.424 91.158C151.876 91.8738 151.412 92.7159 150.99 93.558C150.779 93.979 150.611 94.4422 150.4 94.8632C150.231 95.2843 150.063 95.7475 149.936 96.1685L149.599 97.3053L148.587 96.5475C147.491 95.7053 145.973 95.4106 144.54 95.6211C143.106 95.8317 141.715 96.5053 140.745 97.558C139.776 98.6106 139.27 100 139.27 101.474C139.27 102.947 139.776 104.421 140.492 105.769L140.872 106.442L140.24 106.947C138.005 108.716 136.487 111.411 136.108 114.232C135.686 117.053 136.403 120 138.216 122.19C139.101 123.284 140.24 124.169 141.504 124.842C142.769 125.516 144.16 125.937 145.594 126.232C148.503 126.779 151.538 126.653 154.489 126.19L155.586 126.021L155.712 127.074C155.796 127.916 155.754 128.716 155.67 129.474C155.586 130.232 155.417 130.99 155.248 131.747C154.869 133.221 154.321 134.653 153.604 135.958C152.761 137.558 151.749 139.074 150.569 140.463C151.327 140.253 152.086 140 152.845 139.747C154.658 139.074 156.429 138.274 158.073 137.263C159.717 136.253 161.235 135.074 162.584 133.726C163.259 133.053 163.849 132.295 164.397 131.537C164.945 130.779 165.409 129.937 165.662 129.137L166.252 127.453L167.348 128.842C168.528 130.358 170.173 131.495 171.986 132.169C173.798 132.8 175.822 132.969 177.761 132.632C179.701 132.295 181.598 131.537 183.158 130.358C184.718 129.179 185.982 127.621 186.699 125.769L187.163 124.59L188.006 125.474C189.313 126.821 191.252 127.537 193.192 127.663C195.173 127.79 197.197 127.411 199.052 126.695C200.907 125.937 202.635 124.8 203.985 123.326C205.334 121.853 206.219 120 206.556 118.021L206.641 117.642L207.02 117.558C208.917 117.137 210.646 116.169 212.079 114.779C213.47 113.432 214.524 111.663 214.946 109.769C215.41 107.874 215.199 105.811 214.271 104.084C213.386 102.316 211.826 100.926 210.098 99.958L209.929 99.8738L209.971 99.7053C210.477 98.2317 210.604 96.5896 210.308 95.0317C210.013 93.4738 209.254 92.0001 208.032 90.9053C206.767 89.8948 205.207 89.3053 203.605 89.2632C202.045 89.2211 200.443 89.6422 199.094 90.4843Z" fill="white"/>
<path d="M214.905 103.747C213.893 101.937 212.291 100.547 210.52 99.6209C210.942 98.1051 210.984 96.463 210.605 94.9472C210.225 93.3472 209.34 91.8735 208.075 90.9051C209.298 91.9577 210.057 93.4735 210.352 95.0314C210.647 96.5893 210.52 98.2314 210.014 99.7051L209.972 99.8735L210.141 99.9577C211.912 100.926 213.429 102.316 214.315 104.084C215.242 105.81 215.411 107.874 214.989 109.768C214.568 111.663 213.514 113.431 212.122 114.779C210.731 116.126 208.96 117.095 207.063 117.558L206.684 117.642L206.6 118.021C206.262 120 205.377 121.852 204.028 123.326C202.679 124.8 200.95 125.979 199.095 126.695C197.24 127.452 195.217 127.831 193.235 127.663C191.254 127.537 189.314 126.821 188.049 125.474L187.206 124.589L186.742 125.768C186.026 127.579 184.761 129.179 183.201 130.358C181.641 131.537 179.744 132.295 177.805 132.631C175.865 132.968 173.842 132.8 172.029 132.168C170.216 131.537 168.572 130.358 167.391 128.842L166.295 127.452L165.705 129.137C165.41 129.937 164.946 130.779 164.44 131.537C163.892 132.295 163.302 133.052 162.627 133.726C161.278 135.074 159.76 136.252 158.116 137.263C156.472 138.274 154.701 139.116 152.889 139.747C152.13 140.042 151.371 140.252 150.612 140.463C151.792 139.074 152.804 137.558 153.647 135.958C154.322 134.61 154.87 133.221 155.292 131.747C155.502 131.031 155.629 130.274 155.713 129.474C155.798 128.716 155.84 127.916 155.755 127.074L155.629 126.021L154.533 126.189C151.539 126.652 148.504 126.779 145.637 126.231C144.204 125.937 142.812 125.516 141.548 124.842C140.283 124.168 139.145 123.284 138.259 122.189C136.446 120.042 135.73 117.052 136.151 114.231C136.531 111.41 138.006 108.716 140.241 106.947L140.873 106.442L140.494 105.768C139.777 104.379 139.271 102.905 139.271 101.474C139.229 100.042 139.735 98.6104 140.747 97.5577C141.716 96.5051 143.108 95.8314 144.541 95.6209C145.974 95.4104 147.492 95.7051 148.588 96.5472L149.6 97.3051L149.937 96.0841C150.064 95.6209 150.232 95.1998 150.401 94.7788C150.57 94.3577 150.781 93.8946 150.991 93.4735C151.413 92.6314 151.835 91.7893 152.425 91.0735C152.973 90.3577 153.605 89.7262 154.364 89.263C155.165 88.7998 156.008 88.4209 156.894 88.1262C158.664 87.6209 160.562 87.5367 162.417 87.9156C164.272 88.2525 166.042 89.0104 167.644 90.0209L168.235 90.3998L168.572 89.7683C170.09 87.0735 172.282 84.7998 174.98 83.242C177.678 81.6841 180.756 80.8841 183.876 80.8841C186.995 80.8841 190.115 81.7262 192.813 83.3262C194.163 84.1262 195.343 85.1367 196.397 86.3577C196.903 86.9472 197.367 87.5788 197.788 88.2525C197.999 88.5893 198.21 88.9262 198.378 89.263C198.463 89.4314 198.547 89.5998 198.631 89.7683L198.758 90.0209L198.8 90.1472C198.8 90.1472 198.8 90.1472 198.8 90.1893V90.5683L199.095 90.3998C200.444 89.5998 202.046 89.1367 203.606 89.1788C205.208 89.2209 206.768 89.8104 208.033 90.8209C206.81 89.7683 205.25 89.0946 203.606 88.9683C202.046 88.842 200.486 89.1788 199.095 89.8946L199.053 89.8104L198.927 89.5156C198.842 89.3472 198.758 89.1367 198.674 88.9683C198.505 88.5893 198.294 88.2525 198.083 87.9156C197.662 87.1998 197.198 86.5683 196.692 85.9367C195.638 84.6735 194.416 83.5788 193.066 82.6946C190.368 81.0525 187.122 80.0841 183.876 79.9998C180.587 79.9156 177.299 80.6735 174.39 82.2735C171.692 83.7472 169.415 85.9367 167.771 88.5051C166.211 87.5367 164.482 86.8209 162.669 86.442C160.646 86.0209 158.454 86.0209 156.43 86.5683C155.418 86.863 154.406 87.2841 153.521 87.8314C152.551 88.4209 151.708 89.1788 151.076 90.0209C150.401 90.863 149.895 91.7893 149.431 92.7156C149.221 93.1788 149.01 93.642 148.799 94.1051C148.757 94.2314 148.673 94.3577 148.63 94.5262C147.281 93.8525 145.721 93.642 144.246 93.8525C142.391 94.1051 140.662 94.9472 139.355 96.3367C138.723 97.0104 138.175 97.8525 137.838 98.7367C137.542 99.5788 137.374 100.547 137.374 101.474C137.374 103.074 137.838 104.589 138.47 105.937C136.151 108 134.591 110.863 134.17 113.937C133.917 115.579 134.001 117.305 134.423 118.947C134.844 120.589 135.603 122.147 136.699 123.452C137.753 124.758 139.145 125.852 140.62 126.61C142.096 127.41 143.698 127.916 145.3 128.21C148.124 128.758 150.949 128.716 153.732 128.379C153.732 128.674 153.69 128.926 153.647 129.221C153.563 129.895 153.437 130.526 153.268 131.2C152.931 132.505 152.425 133.768 151.792 134.989C150.57 137.431 148.799 139.621 146.775 141.474L144.077 143.958L147.661 143.242C149.684 142.863 151.666 142.316 153.605 141.6C155.545 140.884 157.4 140 159.17 138.905C160.941 137.81 162.585 136.505 164.019 134.989C164.735 134.231 165.41 133.431 166 132.547C166.295 132.084 166.59 131.579 166.885 131.074C168.15 132.295 169.71 133.263 171.396 133.81C173.547 134.526 175.865 134.652 178.1 134.274C180.334 133.895 182.442 132.968 184.213 131.579C185.689 130.442 186.953 128.926 187.796 127.242C188.429 127.705 189.103 128.084 189.862 128.379C190.958 128.8 192.055 129.01 193.193 129.052C195.427 129.179 197.662 128.716 199.685 127.874C201.709 127.031 203.606 125.726 205.04 124.042C206.431 122.442 207.358 120.505 207.738 118.4C209.677 117.852 211.448 116.758 212.839 115.326C214.315 113.81 215.369 111.874 215.79 109.768C216.212 107.831 215.917 105.6 214.905 103.747Z" fill="#1A1A1A"/>
</g>
<text transform="translate(148 98.4482) rotate(-15.5243)" fill="#050505" xml:space="preserve" style="white-space: pre" font-family="Poppins" font-size="16" font-weight="600" letter-spacing="0em"><tspan x="0" y="20.6">Wow!</tspan></text>
<text transform="translate(289.535 236.991) rotate(-7.12885)" fill="#050505" xml:space="preserve" style="white-space: pre" font-family="Poppins" font-size="10" font-weight="600" letter-spacing="0em"><tspan x="0" y="18.5">Check!</tspan></text>
<path d="M286.43 249.645C286.731 249.166 287.363 249.022 287.842 249.323C288.321 249.623 288.465 250.256 288.164 250.734L284.35 256.803L282.616 255.713L286.43 249.645Z" fill="#FA9531"/>
<path d="M285.44 255.069L284.35 256.803L280.882 254.623C280.404 254.323 280.259 253.69 280.56 253.212C280.861 252.733 281.493 252.589 281.972 252.89L285.44 255.069Z" fill="#FA9531"/>
<text transform="translate(414.935 193.834) rotate(-31.0429)" fill="#050505" xml:space="preserve" style="white-space: pre" font-family="Poppins" font-size="10" font-weight="600" letter-spacing="0em"><tspan x="0" y="18.5">Check!</tspan></text>
<path d="M417.226 206.66C417.307 206.1 417.826 205.712 418.386 205.793C418.946 205.874 419.334 206.394 419.253 206.953L418.226 214.047L416.199 213.754L417.226 206.66Z" fill="#FA9531"/>
<path d="M418.52 212.02L418.226 214.047L414.173 213.46C413.613 213.379 413.225 212.86 413.306 212.3C413.387 211.74 413.906 211.352 414.466 211.433L418.52 212.02Z" fill="#FA9531"/>
<text transform="translate(179.362 246.365) rotate(-2.63143)" fill="#050505" xml:space="preserve" style="white-space: pre" font-family="Poppins" font-size="10" font-weight="600" letter-spacing="0em"><tspan x="0" y="18.5">Check!</tspan></text>
<path d="M175.274 258.736C175.611 258.282 176.253 258.188 176.707 258.526C177.16 258.863 177.255 259.505 176.917 259.958L172.639 265.709L170.996 264.487L175.274 258.736Z" fill="#FA9531"/>
<path d="M173.862 264.066L172.639 265.709L169.353 263.265C168.899 262.927 168.805 262.286 169.143 261.832C169.48 261.378 170.122 261.284 170.575 261.622L173.862 264.066Z" fill="#FA9531"/>
<defs>
<filter id="filter0_d_14_109" x="13" y="9" width="550" height="370" filterUnits="userSpaceOnUse" color-interpolation-filters="sRGB">
<feFlood flood-opacity="0" result="BackgroundImageFix"/>
<feColorMatrix in="SourceAlpha" type="matrix" values="0 0 0 0 0 0 0 0 0 0 0 0 0 0 0 0 0 0 127 0" result="hardAlpha"/>
<feOffset dy="4"/>
<feGaussianBlur stdDeviation="18"/>
<feColorMatrix type="matrix" values="0 0 0 0 0 0 0 0 0 0 0 0 0 0 0 0 0 0 0.12 0"/>
<feBlend mode="normal" in2="BackgroundImageFix" result="effect1_dropShadow_14_109"/>
<feBlend mode="normal" in="SourceGraphic" in2="effect1_dropShadow_14_109" result="shape"/>
</filter>
<filter id="filter1_d_14_109" x="336" y="265" width="74" height="74" filterUnits="userSpaceOnUse" color-interpolation-filters="sRGB">
<feFlood flood-opacity="0" result="BackgroundImageFix"/>
<feColorMatrix in="SourceAlpha" type="matrix" values="0 0 0 0 0 0 0 0 0 0 0 0 0 0 0 0 0 0 127 0" result="hardAlpha"/>
<feOffset dy="4"/>
<feGaussianBlur stdDeviation="12.5"/>
<feColorMatrix type="matrix" values="0 0 0 0 0 0 0 0 0 0 0 0 0 0 0 0 0 0 0.15 0"/>
<feBlend mode="normal" in2="BackgroundImageFix" result="effect1_dropShadow_14_109"/>
<feBlend mode="normal" in="SourceGraphic" in2="effect1_dropShadow_14_109" result="shape"/>
</filter>
<filter id="filter2_d_14_109" x="272" y="265" width="74" height="74" filterUnits="userSpaceOnUse" color-interpolation-filters="sRGB">
<feFlood flood-opacity="0" result="BackgroundImageFix"/>
<feColorMatrix in="SourceAlpha" type="matrix" values="0 0 0 0 0 0 0 0 0 0 0 0 0 0 0 0 0 0 127 0" result="hardAlpha"/>
<feOffset dy="4"/>
<feGaussianBlur stdDeviation="12.5"/>
<feColorMatrix type="matrix" values="0 0 0 0 0 0 0 0 0 0 0 0 0 0 0 0 0 0 0.15 0"/>
<feBlend mode="normal" in2="BackgroundImageFix" result="effect1_dropShadow_14_109"/>
<feBlend mode="normal" in="SourceGraphic" in2="effect1_dropShadow_14_109" result="shape"/>
</filter>
<filter id="filter3_d_14_109" x="240.472" y="265" width="74" height="74" filterUnits="userSpaceOnUse" color-interpolation-filters="sRGB">
<feFlood flood-opacity="0" result="BackgroundImageFix"/>
<feColorMatrix in="SourceAlpha" type="matrix" values="0 0 0 0 0 0 0 0 0 0 0 0 0 0 0 0 0 0 127 0" result="hardAlpha"/>
<feOffset dy="4"/>
<feGaussianBlur stdDeviation="12.5"/>
<feColorMatrix type="matrix" values="0 0 0 0 0 0 0 0 0 0 0 0 0 0 0 0 0 0 0.15 0"/>
<feBlend mode="normal" in2="BackgroundImageFix" result="effect1_dropShadow_14_109"/>
<feBlend mode="normal" in="SourceGraphic" in2="effect1_dropShadow_14_109" result="shape"/>
</filter>
<filter id="filter4_d_14_109" x="368" y="265" width="74" height="74" filterUnits="userSpaceOnUse" color-interpolation-filters="sRGB">
<feFlood flood-opacity="0" result="BackgroundImageFix"/>
<feColorMatrix in="SourceAlpha" type="matrix" values="0 0 0 0 0 0 0 0 0 0 0 0 0 0 0 0 0 0 127 0" result="hardAlpha"/>
<feOffset dy="4"/>
<feGaussianBlur stdDeviation="12.5"/>
<feColorMatrix type="matrix" values="0 0 0 0 0 0 0 0 0 0 0 0 0 0 0 0 0 0 0.15 0"/>
<feBlend mode="normal" in2="BackgroundImageFix" result="effect1_dropShadow_14_109"/>
<feBlend mode="normal" in="SourceGraphic" in2="effect1_dropShadow_14_109" result="shape"/>
</filter>
<filter id="filter5_d_14_109" x="400" y="265" width="74" height="74" filterUnits="userSpaceOnUse" color-interpolation-filters="sRGB">
<feFlood flood-opacity="0" result="BackgroundImageFix"/>
<feColorMatrix in="SourceAlpha" type="matrix" values="0 0 0 0 0 0 0 0 0 0 0 0 0 0 0 0 0 0 127 0" result="hardAlpha"/>
<feOffset dy="4"/>
<feGaussianBlur stdDeviation="12.5"/>
<feColorMatrix type="matrix" values="0 0 0 0 0 0 0 0 0 0 0 0 0 0 0 0 0 0 0.15 0"/>
<feBlend mode="normal" in2="BackgroundImageFix" result="effect1_dropShadow_14_109"/>
<feBlend mode="normal" in="SourceGraphic" in2="effect1_dropShadow_14_109" result="shape"/>
</filter>
<filter id="filter6_d_14_109" x="304" y="265" width="74" height="74" filterUnits="userSpaceOnUse" color-interpolation-filters="sRGB">
<feFlood flood-opacity="0" result="BackgroundImageFix"/>
<feColorMatrix in="SourceAlpha" type="matrix" values="0 0 0 0 0 0 0 0 0 0 0 0 0 0 0 0 0 0 127 0" result="hardAlpha"/>
<feOffset dy="4"/>
<feGaussianBlur stdDeviation="12.5"/>
<feColorMatrix type="matrix" values="0 0 0 0 0 0 0 0 0 0 0 0 0 0 0 0 0 0 0.15 0"/>
<feBlend mode="normal" in2="BackgroundImageFix" result="effect1_dropShadow_14_109"/>
<feBlend mode="normal" in="SourceGraphic" in2="effect1_dropShadow_14_109" result="shape"/>
</filter>
<filter id="filter7_d_14_109" x="435.472" y="84.3516" width="80" height="80" filterUnits="userSpaceOnUse" color-interpolation-filters="sRGB">
<feFlood flood-opacity="0" result="BackgroundImageFix"/>
<feColorMatrix in="SourceAlpha" type="matrix" values="0 0 0 0 0 0 0 0 0 0 0 0 0 0 0 0 0 0 127 0" result="hardAlpha"/>
<feOffset dy="4"/>
<feGaussianBlur stdDeviation="12.5"/>
<feColorMatrix type="matrix" values="0 0 0 0 0 0 0 0 0 0 0 0 0 0 0 0 0 0 0.15 0"/>
<feBlend mode="normal" in2="BackgroundImageFix" result="effect1_dropShadow_14_109"/>
<feBlend mode="normal" in="SourceGraphic" in2="effect1_dropShadow_14_109" result="shape"/>
</filter>
<filter id="filter8_d_14_109" x="458.214" y="107.093" width="34.7581" height="37.4193" filterUnits="userSpaceOnUse" color-interpolation-filters="sRGB">
<feFlood flood-opacity="0" result="BackgroundImageFix"/>
<feColorMatrix in="SourceAlpha" type="matrix" values="0 0 0 0 0 0 0 0 0 0 0 0 0 0 0 0 0 0 127 0" result="hardAlpha"/>
<feOffset dy="4"/>
<feGaussianBlur stdDeviation="5"/>
<feColorMatrix type="matrix" values="0 0 0 0 0 0 0 0 0 0 0 0 0 0 0 0 0 0 0.1 0"/>
<feBlend mode="normal" in2="BackgroundImageFix" result="effect1_dropShadow_14_109"/>
<feBlend mode="normal" in="SourceGraphic" in2="effect1_dropShadow_14_109" result="shape"/>
</filter>
<linearGradient id="paint0_linear_14_109" x1="29" y1="198.5" x2="366" y2="198.5" gradientUnits="userSpaceOnUse">
<stop stop-color="#FFBD39"/>
<stop offset="1" stop-color="#FA9531"/>
<stop offset="1" stop-color="#FA9531"/>
</linearGradient>
<linearGradient id="paint1_linear_14_109" x1="7" y1="85" x2="43" y2="85" gradientUnits="userSpaceOnUse">
<stop stop-color="#FFBD39"/>
<stop offset="1" stop-color="#FA9531"/>
<stop offset="1" stop-color="#FA9531"/>
</linearGradient>
<linearGradient id="paint2_linear_14_109" x1="307.045" y1="369.045" x2="343.045" y2="369.045" gradientUnits="userSpaceOnUse">
<stop stop-color="#FFBD39"/>
<stop offset="1" stop-color="#FA9531"/>
<stop offset="1" stop-color="#FA9531"/>
</linearGradient>
<linearGradient id="paint3_linear_14_109" x1="285" y1="40" x2="321" y2="40" gradientUnits="userSpaceOnUse">
<stop stop-color="#FFBD39"/>
<stop offset="1" stop-color="#FA9531"/>
<stop offset="1" stop-color="#FA9531"/>
</linearGradient>
<linearGradient id="paint4_linear_14_109" x1="60" y1="359.5" x2="79" y2="359.5" gradientUnits="userSpaceOnUse">
<stop stop-color="#FFBD39"/>
<stop offset="1" stop-color="#FA9531"/>
<stop offset="1" stop-color="#FA9531"/>
</linearGradient>
<linearGradient id="paint5_linear_14_109" x1="335" y1="91" x2="343" y2="91" gradientUnits="userSpaceOnUse">
<stop stop-color="#FFBD39"/>
<stop offset="1" stop-color="#FA9531"/>
<stop offset="1" stop-color="#FA9531"/>
</linearGradient>
<linearGradient id="paint6_linear_14_109" x1="310" y1="320" x2="318" y2="320" gradientUnits="userSpaceOnUse">
<stop stop-color="#FFBD39"/>
<stop offset="1" stop-color="#FA9531"/>
<stop offset="1" stop-color="#FA9531"/>
</linearGradient>
<linearGradient id="paint7_linear_14_109" x1="488" y1="4" x2="496" y2="4" gradientUnits="userSpaceOnUse">
<stop stop-color="#FFBD39"/>
<stop offset="1" stop-color="#FA9531"/>
<stop offset="1" stop-color="#FA9531"/>
</linearGradient>
<linearGradient id="paint8_linear_14_109" x1="2.64157e-08" y1="20" x2="8" y2="20" gradientUnits="userSpaceOnUse">
<stop stop-color="#FFBD39"/>
<stop offset="1" stop-color="#FA9531"/>
<stop offset="1" stop-color="#FA9531"/>
</linearGradient>
<linearGradient id="paint9_linear_14_109" x1="70" y1="32" x2="78" y2="32" gradientUnits="userSpaceOnUse">
<stop stop-color="#FFBD39"/>
<stop offset="1" stop-color="#FA9531"/>
<stop offset="1" stop-color="#FA9531"/>
</linearGradient>
<linearGradient id="paint10_linear_14_109" x1="364.982" y1="289.235" x2="380.659" y2="306.904" gradientUnits="userSpaceOnUse">
<stop stop-color="#FF5515"/>
<stop offset="1" stop-color="#E4470C"/>
</linearGradient>
<linearGradient id="paint11_linear_14_109" x1="302.475" y1="287.991" x2="314.918" y2="307.899" gradientUnits="userSpaceOnUse">
<stop stop-color="#00C275"/>
<stop offset="1" stop-color="#00A966"/>
</linearGradient>
<linearGradient id="paint12_linear_14_109" x1="270.2" y1="288.24" x2="282.892" y2="307.153" gradientUnits="userSpaceOnUse">
<stop stop-color="#10494D"/>
<stop offset="1" stop-color="#0D3F43"/>
</linearGradient>
<linearGradient id="paint13_linear_14_109" x1="396.484" y1="290.977" x2="411.166" y2="307.153" gradientUnits="userSpaceOnUse">
<stop stop-color="#0E8DEA"/>
<stop offset="1" stop-color="#097BCE"/>
</linearGradient>
<linearGradient id="paint14_linear_14_109" x1="429.479" y1="289.484" x2="444.162" y2="307.65" gradientUnits="userSpaceOnUse">
<stop stop-color="#1D2B95"/>
<stop offset="1" stop-color="#15217C"/>
</linearGradient>
<linearGradient id="paint15_linear_14_109" x1="333.479" y1="289.484" x2="348.162" y2="307.65" gradientUnits="userSpaceOnUse">
<stop stop-color="#161616"/>
<stop offset="1"/>
</linearGradient>
<linearGradient id="paint16_linear_14_109" x1="476.472" y1="127" x2="90.4722" y2="127" gradientUnits="userSpaceOnUse">
<stop stop-color="white"/>
<stop offset="0.583333" stop-color="#212121"/>
</linearGradient>
<linearGradient id="paint17_linear_14_109" x1="97.5024" y1="265.501" x2="457.777" y2="179.666" gradientUnits="userSpaceOnUse">
<stop stop-color="#00AA66"/>
<stop offset="0.760417" stop-color="#1BC481"/>
<stop offset="1" stop-color="#1EC784" stop-opacity="0"/>
</linearGradient>
<linearGradient id="paint18_linear_14_109" x1="97.5026" y1="277.501" x2="477.581" y2="185.776" gradientUnits="userSpaceOnUse">
<stop stop-color="#E4470C"/>
<stop offset="0.0001" stop-color="#E4470C"/>
<stop offset="0.760417" stop-color="#FE5515"/>
<stop offset="1" stop-color="#FE5515" stop-opacity="0"/>
</linearGradient>
<linearGradient id="paint19_linear_14_109" x1="97.5025" y1="282.501" x2="444.235" y2="197.408" gradientUnits="userSpaceOnUse">
<stop stop-color="#087ACE"/>
<stop offset="0.0001" stop-color="#087ACE"/>
<stop offset="0.760417" stop-color="#0E8DEA"/>
<stop offset="1" stop-color="#0E8DEA" stop-opacity="0"/>
</linearGradient>
<linearGradient id="paint20_linear_14_109" x1="97.5025" y1="289.502" x2="430.582" y2="207.144" gradientUnits="userSpaceOnUse">
<stop stop-color="#15217C"/>
<stop offset="0.0001" stop-color="#1D2B95"/>
<stop offset="0.765625" stop-color="#1D2B95"/>
<stop offset="0.9999" stop-color="#1D2B95" stop-opacity="0.0434783"/>
<stop offset="1" stop-color="#15217D" stop-opacity="0"/>
</linearGradient>
<linearGradient id="paint21_linear_14_109" x1="97.5013" y1="255.501" x2="477.58" y2="163.776" gradientUnits="userSpaceOnUse">
<stop stop-color="#0D3F43"/>
<stop offset="0.760417" stop-color="#10484C"/>
<stop offset="1" stop-color="#10484C" stop-opacity="0"/>
</linearGradient>
<linearGradient id="paint22_linear_14_109" x1="97.5013" y1="266.501" x2="463.124" y2="174.465" gradientUnits="userSpaceOnUse">
<stop/>
<stop offset="0.760417" stop-color="#161616"/>
<stop offset="1" stop-color="#161616" stop-opacity="0"/>
</linearGradient>
<linearGradient id="paint23_linear_14_109" x1="282.736" y1="128.564" x2="283" y2="274" gradientUnits="userSpaceOnUse">
<stop stop-color="#F9A440" stop-opacity="0.35"/>
<stop offset="1" stop-color="#FFBB39" stop-opacity="0.03"/>
</linearGradient>
<linearGradient id="paint24_linear_14_109" x1="89" y1="200.536" x2="476.472" y2="200.536" gradientUnits="userSpaceOnUse">
<stop stop-color="#FFBD39"/>
<stop offset="1" stop-color="#FA9531"/>
<stop offset="1" stop-color="#FA9531"/>
</linearGradient>
<linearGradient id="paint25_linear_14_109" x1="423" y1="189.5" x2="432" y2="189.5" gradientUnits="userSpaceOnUse">
<stop stop-color="#FFBD39"/>
<stop offset="1" stop-color="#FA9531"/>
<stop offset="1" stop-color="#FA9531"/>
</linearGradient>
<linearGradient id="paint26_linear_14_109" x1="297.472" y1="236.5" x2="306.472" y2="236.5" gradientUnits="userSpaceOnUse">
<stop stop-color="#FFBD39"/>
<stop offset="1" stop-color="#FA9531"/>
<stop offset="1" stop-color="#FA9531"/>
</linearGradient>
<linearGradient id="paint27_linear_14_109" x1="189.472" y1="248.5" x2="198.472" y2="248.5" gradientUnits="userSpaceOnUse">
<stop stop-color="#FFBD39"/>
<stop offset="1" stop-color="#FA9531"/>
<stop offset="1" stop-color="#FA9531"/>
</linearGradient>
<linearGradient id="paint28_linear_14_109" x1="465.581" y1="109.102" x2="486.754" y2="128.69" gradientUnits="userSpaceOnUse">
<stop stop-color="#FFBC39"/>
<stop offset="1" stop-color="#F79944"/>
</linearGradient>
<linearGradient id="paint29_linear_14_109" x1="462.662" y1="87.2846" x2="459.631" y2="91.6834" gradientUnits="userSpaceOnUse">
<stop stop-color="#FFBD39"/>
<stop offset="1" stop-color="#FA9531"/>
<stop offset="1" stop-color="#FA9531"/>
</linearGradient>
<linearGradient id="paint30_linear_14_109" x1="493.343" y1="110.151" x2="490.89" y2="107.733" gradientUnits="userSpaceOnUse">
<stop stop-color="#FFBD39"/>
<stop offset="1" stop-color="#FA9531"/>
<stop offset="1" stop-color="#FA9531"/>
</linearGradient>
<linearGradient id="paint31_linear_14_109" x1="464.756" y1="103.546" x2="467.281" y2="103.546" gradientUnits="userSpaceOnUse">
<stop stop-color="#FFBD39"/>
<stop offset="1" stop-color="#FA9531"/>
<stop offset="1" stop-color="#FA9531"/>
</linearGradient>
<linearGradient id="paint32_linear_14_109" x1="499.219" y1="102.327" x2="499.873" y2="104.765" gradientUnits="userSpaceOnUse">
<stop stop-color="#FFBD39"/>
<stop offset="1" stop-color="#FA9531"/>
<stop offset="1" stop-color="#FA9531"/>
</linearGradient>
<linearGradient id="paint33_linear_14_109" x1="473.522" y1="93.3603" x2="494.133" y2="100.879" gradientUnits="userSpaceOnUse">
<stop stop-color="#FFBD39"/>
<stop offset="1" stop-color="#FA9531"/>
<stop offset="1" stop-color="#FA9531"/>
</linearGradient>
<linearGradient id="paint34_linear_14_109" x1="477.268" y1="100.483" x2="478.8" y2="100.483" gradientUnits="userSpaceOnUse">
<stop stop-color="#FFBD39"/>
<stop offset="1" stop-color="#FA9531"/>
<stop offset="1" stop-color="#FA9531"/>
</linearGradient>
<linearGradient id="paint35_linear_14_109" x1="481.586" y1="102.057" x2="483.118" y2="102.057" gradientUnits="userSpaceOnUse">
<stop stop-color="#FFBD39"/>
<stop offset="1" stop-color="#FA9531"/>
<stop offset="1" stop-color="#FA9531"/>
</linearGradient>
<linearGradient id="paint36_linear_14_109" x1="485.424" y1="103.458" x2="486.956" y2="103.458" gradientUnits="userSpaceOnUse">
<stop stop-color="#FFBD39"/>
<stop offset="1" stop-color="#FA9531"/>
<stop offset="1" stop-color="#FA9531"/>
</linearGradient>
<clipPath id="clip0_14_109">
<rect width="10.0039" height="9.70531" fill="white" transform="translate(367.968 293.714)"/>
</clipPath>
<clipPath id="clip1_14_109">
<rect width="10.0537" height="11.5468" fill="white" transform="translate(399.968 292.221)"/>
</clipPath>
<clipPath id="clip2_14_109">
<rect width="20" height="20" fill="white" transform="translate(117 141)"/>
</clipPath>
<clipPath id="clip3_14_109">
<rect width="82" height="64" fill="white" transform="translate(134 80)"/>
</clipPath>
</defs>
</svg>
