<svg width="590" height="200" viewBox="0 0 590 200" fill="none" xmlns="http://www.w3.org/2000/svg">
<g filter="url(#filter0_d_0_7)">
<rect x="20" y="19" width="550" height="160" rx="16" fill="white"/>
</g>
<mask id="mask0_0_7" style="mask-type:alpha" maskUnits="userSpaceOnUse" x="96" y="19" width="145" height="160">
<path d="M213.5 19H95.9999V178.6H240.6C240.2 177.5 239.8 176.3 239.5 175C238.9 173.7 238 173.6 237.2 172.5C236.3 171.3 236.2 170.3 237 168.7C238.1 166.5 238.9 166.7 237.1 165.1C235 163.1 233.7 162.1 231.4 160.5C233.5 159.1 232.2 159.6 233.7 158.6C232.7 157.6 231.2 157.6 231 157.2C228.5 157.2 227.2 154.8 225.7 154.7C225.5 153.5 225.7 152.3 226.1 151.1C226.5 149.3 226.8 147.5 227.2 145.7C227.4 144.8 227.6 143.8 227.8 142.7C228.1 141 228.3 139.3 228.7 137.6C229.2 134.7 229.1 131.3 229.5 128.4C229.7 127.5 230.2 126.6 230.3 125.6C230.4 123.7 228.8 123.2 228.1 121.8C227.7 121 227.9 120.3 227.4 119.5C227 118.5 225.6 118.2 225.5 116.9C225.3 114.9 226.7 115 227.4 113.5C227.2 113.7 227.2 109.1 227.1 109.1C227.2 107.5 227.3 105.8 227.4 104.2C227.4 103.9 227.5 103.6 227.5 103.3C227.6 102.7 227.7 102.1 227.7 101.4C228.1 97.7 226.1 94 225.4 90.2C224.6 85.8 227.4 88.3 227.5 85.4C224.7 84 227.7 81.9 228.1 80.4C228.5 78.8 227.7 78.3 226.9 77.5C224.6 74.8 220.8 73 218.6 70.1C218.9 68.6 220.5 69.1 221.3 68.1C222.3 66.9 221.7 65.5 221.5 64C221.5 63.9 221.5 63.7 221.5 63.6C221.4 62.7 221.4 61.8 221.3 60.8C221.3 59.9 221.2 59.1 220.9 58.3C220.6 57.1 219.1 55.9 219.6 54.6C221 53.6 221.2 53 222.4 52C219.4 51.1 218.2 48.9 215.2 46.5C215.5 45.7 216.2 45.4 216.5 44.6C216 44.6 215.5 44.5 215 44.3C215.7 42.4 218.6 40.5 219.7 38.5C218.6 37.5 218.1 34.4 218.5 32.5C218.8 31 219.5 28.5 219.4 27C219.2 24.8 219.4 25.2 216.6 24.3C215.6 23.9 214.4 23.5 213.5 22.8C212.6 22.1 212.1 21.2 212.8 20C212.8 20 212.8 19.9 212.9 19.9" fill="url(#paint0_linear_0_7)"/>
</mask>
<g mask="url(#mask0_0_7)">
<path d="M47.9999 180.001C39.1634 180.001 31.9999 172.838 31.9999 164.001L31.9999 35.0013C31.9999 26.1647 39.1633 19.0013 47.9999 19.0013L247 19.0013L247 180.001L47.9999 180.001Z" fill="url(#paint1_linear_0_7)"/>
</g>
<mask id="mask1_0_7" style="mask-type:alpha" maskUnits="userSpaceOnUse" x="94" y="19" width="145" height="160">
<path d="M211.5 19.0011H94V178.601H238.6C238.2 177.501 237.8 176.301 237.5 175.001C236.9 173.701 236 173.601 235.2 172.501C234.3 171.301 234.2 170.301 235 168.701C236.1 166.501 236.9 166.701 235.1 165.101C233 163.101 231.7 162.101 229.4 160.501C231.5 159.101 230.2 159.601 231.7 158.601C230.7 157.601 229.2 157.601 229 157.201C226.5 157.201 225.2 154.801 223.7 154.701C223.5 153.501 223.7 152.301 224.1 151.101C224.5 149.301 224.8 147.501 225.2 145.701C225.4 144.801 225.6 143.801 225.8 142.701C226.1 141.001 226.3 139.301 226.7 137.601C227.2 134.701 227.1 131.301 227.5 128.401C227.7 127.501 228.2 126.601 228.3 125.601C228.4 123.701 226.8 123.201 226.1 121.801C225.7 121.001 225.9 120.301 225.4 119.501C225 118.501 223.6 118.201 223.5 116.901C223.3 114.901 224.7 115.001 225.4 113.501C225.2 113.701 225.2 109.101 225.1 109.101C225.2 107.501 225.3 105.801 225.4 104.201C225.4 103.901 225.5 103.601 225.5 103.301C225.6 102.701 225.7 102.101 225.7 101.401C226.1 97.7011 224.1 94.0011 223.4 90.2011C222.6 85.8011 225.4 88.3011 225.5 85.4011C222.7 84.0011 225.7 81.9011 226.1 80.4011C226.5 78.8011 225.7 78.3011 224.9 77.5011C222.6 74.8011 218.8 73.0011 216.6 70.1011C216.9 68.6011 218.5 69.1011 219.3 68.1011C220.3 66.9011 219.7 65.5011 219.5 64.0011C219.5 63.9011 219.5 63.7011 219.5 63.6011C219.4 62.7011 219.4 61.8011 219.3 60.8011C219.3 59.9011 219.2 59.1011 218.9 58.3011C218.6 57.1011 217.1 55.9011 217.6 54.6011C219 53.6011 219.2 53.0011 220.4 52.0011C217.4 51.1011 216.2 48.9011 213.2 46.5011C213.5 45.7011 214.2 45.4011 214.5 44.6011C214 44.6011 213.5 44.5011 213 44.3011C213.7 42.4011 216.6 40.5011 217.7 38.5011C216.6 37.5011 216.1 34.4011 216.5 32.5011C216.8 31.0011 217.5 28.5011 217.4 27.0011C217.2 24.8011 217.4 25.2011 214.6 24.3011C213.6 23.9011 212.4 23.5011 211.5 22.8011C210.6 22.1011 210.1 21.2011 210.8 20.0011C210.8 20.0011 210.8 19.9011 210.9 19.9011" fill="url(#paint2_linear_0_7)"/>
</mask>
<g mask="url(#mask1_0_7)">
<path d="M49 180.002C40.1634 180.002 33 172.838 33 164.002L33 35.0016C33 26.165 40.1634 19.0016 49 19.0016L239 19.0016L239 180.002L49 180.002Z" fill="white"/>
</g>
<circle cx="69.5" cy="49.5788" r="0.5" fill="black"/>
<circle cx="72.3605" cy="152.047" r="1" fill="black"/>
<circle cx="48" cy="125.079" r="1" fill="black"/>
<circle cx="116.86" cy="155.547" r="0.5" fill="black"/>
<path d="M140.36 175.547C140.36 175.823 140.136 176.047 139.86 176.047C139.584 176.047 139.36 175.823 139.36 175.547C139.36 175.271 139.584 175.047 139.86 175.047C140.136 175.047 140.36 175.271 140.36 175.547Z" fill="black"/>
<circle cx="205.36" cy="145.047" r="1" fill="black"/>
<circle cx="40.5" cy="139.579" r="0.5" fill="black"/>
<circle cx="187.36" cy="90.0472" r="0.5" stroke="black"/>
<path d="M182.5 159.577C182.5 160.13 182.052 160.577 181.5 160.577C180.948 160.577 180.5 160.13 180.5 159.577C180.5 159.025 180.948 158.577 181.5 158.577C182.052 158.577 182.5 159.025 182.5 159.577Z" stroke="black"/>
<circle cx="110.5" cy="45.5775" r="1" stroke="black"/>
<circle cx="39.5" cy="58.5775" r="1" stroke="black"/>
<circle cx="79.3605" cy="31.0472" r="0.5" stroke="black"/>
<path d="M91.2971 154.97C92.6086 158.937 95.559 157.623 95.559 157.623C94.0333 158.127 93.423 158.329 92.6017 161.985C91.8975 158.833 88.2036 160.064 89.3557 159.335C90.4752 158.627 91.1585 156.257 91.2971 154.97Z" stroke="black" stroke-width="1.5" stroke-linejoin="round"/>
<path d="M182.406 37.8065C184.254 31.5747 179.318 30.6324 179.318 30.6324C181.715 31.3433 182.674 31.6276 186.971 27.6868C185.071 32.3384 190.883 34.0471 188.764 33.9552C186.704 33.8658 183.726 36.2857 182.406 37.8065Z" stroke="black" stroke-width="2" stroke-linejoin="round"/>
<defs>
<filter id="filter0_d_0_7" x="0" y="0" width="590" height="200" filterUnits="userSpaceOnUse" color-interpolation-filters="sRGB">
<feFlood flood-opacity="0" result="BackgroundImageFix"/>
<feColorMatrix in="SourceAlpha" type="matrix" values="0 0 0 0 0 0 0 0 0 0 0 0 0 0 0 0 0 0 127 0" result="hardAlpha"/>
<feOffset dy="1"/>
<feGaussianBlur stdDeviation="10"/>
<feColorMatrix type="matrix" values="0 0 0 0 0.980392 0 0 0 0 0.584314 0 0 0 0 0.192157 0 0 0 0.15 0"/>
<feBlend mode="normal" in2="BackgroundImageFix" result="effect1_dropShadow_0_7"/>
<feBlend mode="normal" in="SourceGraphic" in2="effect1_dropShadow_0_7" result="shape"/>
</filter>
<linearGradient id="paint0_linear_0_7" x1="95.9999" y1="98.8" x2="240.6" y2="98.8" gradientUnits="userSpaceOnUse">
<stop stop-color="#FFBD39"/>
<stop offset="1" stop-color="#FA9531"/>
<stop offset="1" stop-color="#FA9531"/>
</linearGradient>
<linearGradient id="paint1_linear_0_7" x1="139.5" y1="180.001" x2="139.5" y2="19.0013" gradientUnits="userSpaceOnUse">
<stop stop-color="#FFBD39"/>
<stop offset="1" stop-color="#FA9531"/>
<stop offset="1" stop-color="#FA9531"/>
</linearGradient>
<linearGradient id="paint2_linear_0_7" x1="94" y1="98.8011" x2="238.6" y2="98.8011" gradientUnits="userSpaceOnUse">
<stop stop-color="#FFBD39"/>
<stop offset="1" stop-color="#FA9531"/>
<stop offset="1" stop-color="#FA9531"/>
</linearGradient>
</defs>
</svg>
