<svg width="79" height="22" viewBox="0 0 79 22" fill="none" xmlns="http://www.w3.org/2000/svg">
<path d="M45.8243 20.1035C45.5183 20.18 45.2123 20.18 44.9063 20.1035C44.6768 20.1035 44.6003 20.027 44.6003 19.9505C44.6003 19.874 44.4473 13.1419 44.4473 10.5409V8.47533L44.8298 8.39883C45.1358 8.32233 45.4418 8.24583 45.7478 8.32233C46.0538 8.32233 46.4363 8.39883 46.6658 8.55183C47.6604 9.01084 48.2724 10.2349 48.5784 11.9944C48.6549 13.0654 48.6549 14.2129 48.5784 15.284C48.3489 17.273 47.6604 18.803 46.8188 19.568C46.5893 19.874 46.2068 20.027 45.8243 20.1035ZM48.6549 6.7158C48.1959 6.6393 47.8134 6.6393 47.3543 6.6393C46.5128 6.6393 45.7478 6.7923 44.9828 7.17481L44.5238 7.40431C44.5238 7.40431 44.5238 5.95079 44.5238 4.11475C44.6003 3.04374 44.6003 1.97272 44.5238 0.825195C44.3708 0.825195 38.5567 1.89621 38.5567 1.97272C38.5567 2.04922 38.4802 2.12572 38.4802 2.35522C38.4802 2.66123 38.4802 2.66123 39.1687 2.81423C39.3982 2.81423 39.5512 2.89073 39.7042 3.04374C40.0102 3.34974 40.1632 3.65575 40.2397 4.11475C40.3162 4.49726 40.3927 4.80327 40.3927 7.55732C40.3927 10.3114 40.3927 13.2949 40.3927 18.5735V20.7921L40.7752 20.8686C41.3872 21.0216 43.0703 21.2511 43.6058 21.3276C44.7533 21.4041 45.8243 21.4041 46.9718 21.3276C49.4964 21.0216 51.6384 19.415 52.5564 17.0435C52.8624 16.2785 53.0154 15.5135 53.0919 14.7484C53.1684 13.6774 53.1684 12.6064 53.0154 11.6119C52.4799 8.93434 50.8734 7.17481 48.6549 6.7158ZM39.4747 6.9453C39.4747 7.09831 38.0977 10.6939 38.0212 10.7704C37.7917 10.6939 37.6387 10.6174 37.4092 10.5409C36.8737 10.2349 36.2616 10.1584 35.7261 10.0819C35.1141 10.0819 34.5021 10.2349 33.9666 10.6939C33.8136 10.8469 33.8136 10.8469 33.8136 12.9124C33.8136 14.9779 33.8136 17.426 33.9666 18.4205C34.0431 19.262 34.2726 19.721 34.7316 19.874C35.1906 19.9505 35.7261 20.027 36.1851 20.1035C36.1851 20.2565 36.1851 20.4095 36.1851 20.5625V21.0216H31.9776C29.6825 21.0216 27.77 21.0216 27.77 21.0216C27.77 21.0216 27.6935 20.8686 27.6935 20.5625V20.18H27.923L28.4585 20.1035C28.994 20.027 29.3765 19.6445 29.453 19.109C29.6825 17.426 29.759 15.743 29.6825 14.0599C29.6825 10.3114 29.606 9.46985 29.2235 9.01084C28.994 8.70484 28.841 8.62833 28.382 8.55183L27.77 8.47533C27.617 8.47533 27.617 8.39883 27.617 8.16933C27.617 7.86332 27.617 7.86332 27.77 7.78682C27.923 7.71032 33.5076 6.5628 33.6606 6.5628H33.8136V7.40431C33.8136 7.86332 33.8136 8.55183 33.7371 8.85784V9.46985L33.9666 9.08734C34.5021 8.09282 35.2671 7.25131 36.3381 6.7923C36.7972 6.5628 37.3327 6.4863 37.8682 6.4863C38.6332 6.4863 39.3982 6.7158 39.3982 7.02181L39.4747 6.9453ZM61.5836 12.1474L59.5181 12.2239H58.447V11.9944C58.447 11.7649 58.5235 11.4589 58.5235 11.2294C58.9061 8.93434 59.7476 7.63382 60.7421 7.63382C61.8131 7.63382 62.3486 9.01084 62.4251 11.4589V12.1474H61.5836ZM63.7256 6.9453C61.8896 6.18029 59.8241 6.25679 58.0645 7.09831C56.3815 7.93982 55.1575 9.39335 54.622 11.1529C54.316 12.1474 54.163 13.1419 54.2395 14.2129C54.2395 14.7484 54.2395 15.284 54.3925 15.8195C54.928 18.5735 57.07 20.7155 59.8241 21.1746C60.6656 21.2511 61.5836 21.2511 62.4251 21.1746C63.3431 21.0216 64.1846 20.7155 64.9497 20.18C65.7147 19.6445 66.5562 18.8795 66.5562 18.5735C66.5562 18.2675 66.3267 18.1145 66.1737 18.1145C66.0207 18.191 65.8677 18.2675 65.7147 18.344C64.9497 18.803 64.1081 19.109 63.1901 19.0325C61.9661 19.109 60.8186 18.65 59.9771 17.8085C59.6711 17.5025 59.4416 17.1965 59.2121 16.814C58.753 15.896 58.447 14.8249 58.447 13.7539V13.2949H62.5781H66.7092V12.9889C66.7092 12.6829 66.7092 12.3769 66.6327 12.0709C66.4032 9.54635 65.4087 7.78682 63.7256 6.9453ZM78.1844 16.661C78.2609 17.12 78.1844 17.579 78.0314 18.038C77.4959 19.6445 76.1189 20.7921 74.5123 21.0981C73.9003 21.2511 73.2118 21.3276 72.5998 21.2511C71.9113 21.2511 71.2228 21.2511 71.0698 21.2511C69.9987 21.0981 68.9277 20.8686 67.9332 20.5625L67.7037 20.486V19.1855C67.7037 18.497 67.7037 17.5025 67.6272 17.0435V16.202L67.7802 16.1255C67.8567 16.1255 67.9332 16.1255 68.0862 16.1255H68.3157L68.4687 16.5845C69.2337 18.4205 70.1517 19.4915 71.2993 19.721C71.8348 19.874 72.3703 19.874 72.9058 19.721C73.7473 19.4915 74.3593 18.65 74.3593 17.732C74.3593 16.5845 73.7473 16.049 71.4523 15.131C70.4578 14.8249 69.6162 14.3659 68.9277 13.6009C68.3157 12.9124 67.9332 12.0709 67.9332 11.1529C67.8567 9.92886 68.3157 8.78134 69.1572 7.86332C70.1517 6.9453 71.4523 6.40979 72.7528 6.33329C74.2828 6.25679 75.8894 6.4863 77.3429 6.9453L77.5724 7.02181V8.16933C77.5724 8.78134 77.6489 9.62285 77.6489 10.0819V10.8469L77.4194 10.9234C76.9604 11.0764 76.9604 11.0764 76.7309 10.4644C76.0424 8.70484 75.2773 7.86332 74.0533 7.55732C73.0588 7.32781 72.0643 7.93982 71.8348 8.93434C71.8348 9.08734 71.7583 9.24035 71.7583 9.31685C71.6818 9.77586 71.8348 10.3114 72.2173 10.6174C72.9823 11.3059 73.9003 11.8414 74.8948 12.1474C76.7309 12.9124 77.5724 13.6009 78.0314 14.5189C78.1844 15.284 78.3374 15.9725 78.1844 16.661ZM7.42063 3.04374C7.34413 3.57924 7.26763 7.17481 7.26763 8.85784V10.5409H7.80314C8.10914 10.5409 8.64465 10.5409 9.02716 10.4644C9.40967 10.4644 9.71567 10.3879 10.0982 10.3114C10.7867 9.92886 11.3222 9.16384 11.3987 8.32233L11.5517 7.78682H12.0107H12.4697V14.5189H12.0107H11.5517L11.3987 13.9834C11.2457 13.1419 10.7867 12.4534 10.0982 11.9944C9.33317 11.8414 8.64465 11.7649 7.87964 11.7649H7.26763V13.0654C7.26763 14.4424 7.34413 16.355 7.42063 17.3495C7.57363 18.803 7.87964 19.568 8.56815 19.7975C8.87416 19.874 9.18016 19.9505 9.40967 20.027C9.63917 20.027 9.94518 20.1035 10.1747 20.18C10.3277 20.2565 10.3277 20.9451 10.1747 21.0216C10.0217 21.0981 0.153003 21.0216 0.0765014 21.0216C0 21.0216 0 20.7921 0 20.486C0 20.027 0 20.027 0.841515 19.874C1.30052 19.874 1.75953 19.6445 2.06554 19.1855C2.67755 18.4205 2.75405 16.8905 2.75405 10.7704C2.75405 4.95627 2.67755 3.80875 2.06554 2.89073C1.68303 2.43172 1.14752 2.20222 0.53551 2.20222L0 2.12572V1.66671V1.2077H0.153003C0.229504 1.2077 3.82507 1.2077 8.10915 1.2077H15.8358V1.43721C15.8358 1.59021 15.9123 2.81423 15.9123 4.26776V6.8688L15.6063 6.9453C14.9943 7.09831 14.9943 7.09831 14.7648 6.40979C14.0763 4.65026 13.3112 3.65575 12.3167 3.12024C11.6282 2.73773 11.2457 2.73773 9.25667 2.73773H7.42063V3.04374ZM21.4969 20.18C19.9669 20.639 18.8193 19.1855 18.4368 16.1255C18.2838 14.5189 18.2838 12.9124 18.4368 11.3059C18.7428 8.85784 19.5078 7.55732 20.7319 7.55732C21.1909 7.55732 21.7264 7.71032 22.0324 8.09282C23.0269 9.08734 23.4859 11.0764 23.4859 14.0599C23.4859 16.508 23.2564 18.038 22.7209 19.0325C22.4149 19.568 22.0324 19.9505 21.4969 20.18ZM27.77 12.6829C27.464 10.1584 26.393 8.39883 24.7099 7.32781C22.5679 6.18029 19.9669 6.10379 17.7483 7.17481C16.1418 8.01632 14.9943 9.39335 14.4588 11.0764C13.9232 12.9889 13.9232 14.9779 14.4588 16.8905C14.7648 17.885 15.3003 18.8795 16.0653 19.568C16.9833 20.486 18.2073 21.0981 19.5078 21.2511C20.3494 21.3276 21.1909 21.3276 22.0324 21.2511C22.3384 21.1746 22.6444 21.0981 22.9504 21.0216C25.3985 20.333 27.311 18.191 27.6935 15.6665C27.923 14.6719 27.923 13.6009 27.77 12.6829Z" fill="#B5B5B5"/>
</svg>
