<svg width="105" height="18" viewBox="0 0 105 18" fill="none" xmlns="http://www.w3.org/2000/svg">
<path d="M58.0641 0.355003L54.9275 2.72655L53.3975 8.15814L55.157 10.6827H60.2826L59.2116 14.4313H55.004L55.5395 12.5952H52.1734L51.4849 15.1963L53.2445 17.7208H59.1351L62.3481 15.2728L63.8017 9.76467L62.0421 7.31663H56.993L57.9876 3.64456H62.1951L61.6596 5.40409H65.0257L65.7907 2.72655L64.0312 0.355003H58.0641Z" fill="#B5B5B5"/>
<path d="M70.8393 0.355003L67.7028 2.72655L64.1837 15.2728L66.0198 17.7208H71.9104L75.1234 15.2728L76.0414 11.7537H72.7519L71.9869 14.4313H67.7793L70.7628 3.64456H74.9704L74.2054 6.32211H77.5715L78.566 2.72655L76.8064 0.355003H70.8393Z" fill="#B5B5B5"/>
<path d="M93.9434 0.355003L89.1238 17.7208H92.4899L93.9434 12.5187H96.6975L97.3095 17.7208H100.599L99.9105 11.8302L102.282 9.91767L104.271 2.80305L102.359 0.355003H93.9434ZM96.315 3.64456H100.523L98.9925 9.22916H94.7849L96.315 3.64456Z" fill="#B5B5B5"/>
<path d="M37.5622 0.355003L34.8847 10.1472L33.2782 0.355003H29.9121L25.0925 17.7208H28.4586L31.2126 7.85214L32.8957 17.7208H36.1087L40.9283 0.355003H37.5622Z" fill="#B5B5B5"/>
<path d="M45.2895 0.355003L42.153 2.72655L38.0219 17.6443H41.3114L42.765 12.4422H46.9725L45.519 17.6443H48.8086L53.0162 2.72655L51.2566 0.355003H45.2895ZM45.213 3.64456H49.4206L47.8906 9.22916H43.683L45.213 3.64456Z" fill="#B5B5B5"/>
<path d="M83.5402 0.355003L80.4037 2.72655L76.2726 17.6443H79.6386L81.0922 12.4422H85.2997L83.8462 17.6443H87.2123L91.3433 2.72655L89.5838 0.355003H83.5402ZM83.5402 3.64456H87.7478L86.2178 9.22916H82.0102L83.5402 3.64456Z" fill="#B5B5B5"/>
<path d="M21.4977 0.355003L16.6781 17.7208H23.3337L28.0768 0.355003H21.4977Z" fill="#B5B5B5"/>
<path d="M11.9341 0.355003L7.1145 17.7208H10.3276L15.1471 0.355003H11.9341Z" fill="#B5B5B5"/>
<path d="M16.4472 0.355003L11.6276 17.7208H14.8407L19.5837 0.355003H16.4472Z" fill="#B5B5B5"/>
<path d="M4.81959 0.355097L0 17.7209H1.98904L6.80862 0.355097H4.81959Z" fill="#B5B5B5"/>
<path d="M8.10902 0.355003L3.28943 17.7208H5.27847L10.0981 0.355003H8.10902Z" fill="#B5B5B5"/>
</svg>
