<svg width="60" height="42" viewBox="0 0 60 42" fill="none" xmlns="http://www.w3.org/2000/svg">
<g clip-path="url(#clip0_10_221)">
<path d="M2.31214 6.10352e-05H57.6879C58.9595 6.10352e-05 60 1.05299 60 2.33989V39.6602C60 40.9471 58.9595 42.0001 57.6879 42.0001H2.31214C1.04046 42.0001 0 40.9471 0 39.6602V2.33989C0 1.05299 1.04046 6.10352e-05 2.31214 6.10352e-05Z" fill="white"/>
<path d="M2.31232 1.16998H57.688C58.3817 1.16998 58.8441 1.63795 58.8441 2.3399V39.6602C58.8441 40.3622 58.3817 40.8301 57.688 40.8301H2.31232C1.61868 40.8301 1.15625 40.3622 1.15625 39.6602V2.3399C1.15625 1.63795 1.61868 1.16998 2.31232 1.16998Z" stroke="#050505" stroke-width="2"/>
<path d="M29.3646 30.7681C29.7114 31.0021 30.2895 31.0021 30.6363 30.7681L55.8386 13.3364C56.7634 12.6344 56.301 11.2305 55.145 11.2305H4.74033C3.58426 11.2305 3.12183 12.7514 4.04669 13.3364L29.3646 30.7681Z" fill="url(#paint0_linear_10_221)"/>
<path d="M31.0985 22.6966L57.9193 3.39302C58.8442 2.69107 58.3818 1.28717 57.2257 1.28717H3.58408C2.42801 1.28717 1.96558 2.69107 2.89044 3.39302L29.7112 22.6966C30.1737 23.0476 30.7517 23.0476 31.0985 22.6966Z" stroke="#050505" stroke-width="2"/>
<path d="M2.0812 38.2566L22.0812 18.0171C22.5436 17.5491 23.2373 17.5491 23.6997 18.0171C24.1621 18.485 24.1621 19.187 23.6997 19.6549L3.69969 40.0115C3.23727 40.4794 2.54362 40.4794 2.0812 40.0115C1.61877 39.5435 1.61877 38.7246 2.0812 38.2566ZM56.1852 40.3625L46.0118 30.0672C45.5494 29.5992 45.5494 28.8973 46.0118 28.4293C46.4743 27.9613 47.1679 27.9613 47.6303 28.4293L57.8037 38.7246C58.2662 39.1925 58.2662 39.8945 57.8037 40.3625C57.4569 40.8304 56.6477 40.8304 56.1852 40.3625ZM41.0407 25.0366L36.1852 20.1229C35.7228 19.6549 35.7228 18.953 36.1852 18.485C36.6477 18.0171 37.3413 18.0171 37.8037 18.485L42.6592 23.3987C43.1217 23.8666 43.1217 24.5686 42.6592 25.0366C42.3124 25.3875 41.5032 25.3875 41.0407 25.0366Z" fill="#050505"/>
</g>
<defs>
<linearGradient id="paint0_linear_10_221" x1="-3.4169" y1="21.0765" x2="63.4455" y2="21.0765" gradientUnits="userSpaceOnUse">
<stop stop-color="#FFBD39"/>
<stop offset="1" stop-color="#F9953A"/>
</linearGradient>
<clipPath id="clip0_10_221">
<rect width="60" height="42" fill="white"/>
</clipPath>
</defs>
</svg>
