<svg width="83" height="67" viewBox="0 0 83 67" fill="none" xmlns="http://www.w3.org/2000/svg">
<g clip-path="url(#clip0_10_198)">
<path d="M67.3447 23.7266H11.3185C10.0272 23.7266 8.98047 24.7791 8.98047 26.0775V63.6316C8.98047 64.9299 10.0272 65.9825 11.3185 65.9825H67.3447C68.6359 65.9825 69.6827 64.9299 69.6827 63.6316V26.0775C69.6827 24.7791 68.6359 23.7266 67.3447 23.7266Z" fill="white"/>
<path d="M67.3436 24.9024H11.3175C10.6718 24.9024 10.1484 25.4287 10.1484 26.0778V63.6319C10.1484 64.2811 10.6718 64.8074 11.3175 64.8074H67.3436C67.9893 64.8074 68.5126 64.2811 68.5126 63.6319V26.0778C68.5126 25.4287 67.9893 24.9024 67.3436 24.9024Z" stroke="#050505" stroke-width="2"/>
<path d="M38.6705 54.652C38.865 54.7859 39.0953 54.8576 39.331 54.8576C39.5668 54.8576 39.797 54.7859 39.9915 54.652L65.4924 37.0945C66.4393 36.4421 65.981 34.9493 64.8307 34.9493H13.8313C12.6822 34.9493 12.2228 36.4421 13.1708 37.0945L38.6717 54.652H38.6705Z" fill="url(#paint0_linear_10_198)"/>
<path d="M40.4237 46.5631L67.5425 27.1179C68.4683 26.4526 68.0007 24.9844 66.8644 24.9844H12.628C11.4906 24.9844 11.023 26.4537 11.95 27.1179L39.0653 46.5631C39.2635 46.7054 39.5009 46.7819 39.7445 46.7819C39.988 46.7819 40.2255 46.7054 40.4237 46.5631V46.5631Z" stroke="#050505" stroke-width="2"/>
<path d="M31.2556 41.9141L11.0688 62.2119C10.6123 62.6709 10.6123 63.4152 11.0688 63.8742C11.5253 64.3332 12.2655 64.3332 12.722 63.8742L32.9089 43.5764C33.3654 43.1174 33.3654 42.3731 32.9089 41.9141C32.4523 41.4551 31.7122 41.4551 31.2556 41.9141Z" fill="#050505"/>
<path d="M55.5572 53.8985L65.8453 64.2431C66.3018 64.7022 67.042 64.7022 67.4985 64.2431C67.955 63.7841 67.955 63.0398 67.4985 62.5808L57.2104 52.2362C56.7539 51.7771 56.0137 51.7771 55.5572 52.2362C55.1006 52.6952 55.1006 53.4395 55.5572 53.8985Z" fill="#050505"/>
<path d="M45.6608 43.944L50.5171 48.8271C50.9737 49.2861 51.7138 49.2861 52.1704 48.8271C52.6269 48.3681 52.6269 47.6238 52.1704 47.1648L47.314 42.2817C46.8575 41.8227 46.1173 41.8227 45.6608 42.2817C45.2042 42.7407 45.2042 43.485 45.6608 43.944Z" fill="#050505"/>
<path fill-rule="evenodd" clip-rule="evenodd" d="M61.5909 41.8836C72.7702 41.8836 81.8335 32.7705 81.8335 21.5297C81.8324 10.289 72.7702 1.17584 61.5909 1.17584C50.4116 1.17584 41.3482 10.289 41.3482 21.5297C41.3482 25.0384 42.232 28.3402 43.7868 31.2212C41.243 34.4361 37.6962 36.6271 34.423 38.0705C33.3499 38.5454 33.4258 40.1651 34.5808 40.3661C38.9997 41.1302 45.6619 41.5533 50.2865 38.4149C53.625 40.6813 57.5627 41.8892 61.5909 41.8825V41.8836Z" fill="white"/>
<path d="M43.3062 31.2221L44.2216 31.9532L44.7032 31.3443L44.3338 30.6614L43.3062 31.2221ZM33.9448 38.0713L33.4748 36.9946L33.9448 38.0713ZM34.1014 40.3658L34.3001 39.2068L34.1014 40.3658ZM49.8071 38.4157L50.4606 37.4413L49.8059 36.9982L49.1525 37.4413L49.8071 38.4169V38.4157ZM80.1839 21.5294C80.1839 32.1213 71.6443 40.7079 61.1103 40.7079V43.0587C72.9349 43.0587 82.522 33.4201 82.522 21.5294H80.1839ZM61.1115 2.35094C71.6443 2.35094 80.1851 10.9375 80.1851 21.5294H82.5232C82.522 9.63866 72.9361 6.10352e-05 61.1115 6.10352e-05V2.35094ZM42.0379 21.5294C42.0379 10.9387 50.5775 2.35094 61.1115 2.35094V6.10352e-05C49.2857 6.10352e-05 39.6998 9.63866 39.6998 21.5294H42.0379ZM44.3338 30.6614C42.8223 27.8578 42.033 24.7184 42.0379 21.5294H39.6998C39.6998 25.2391 40.6339 28.7325 42.2798 31.7827L44.335 30.6614H44.3338ZM34.4147 39.148C37.7826 37.6599 41.5165 35.3714 44.2216 31.9544L42.3921 30.4898C40.0096 33.4989 36.6487 35.5935 33.4748 36.9946L34.4147 39.1469V39.148ZM34.3001 39.2068C34.2861 39.2045 34.2908 39.2033 34.3048 39.2115C34.3189 39.2197 34.3317 39.2315 34.3422 39.2444C34.3621 39.2679 34.3551 39.275 34.3539 39.2515C34.3524 39.2281 34.3577 39.2049 34.3691 39.1845C34.3726 39.1763 34.3773 39.1716 34.382 39.1669C34.3916 39.1583 34.4027 39.1515 34.4147 39.1469L33.4748 36.9946C33.0169 37.1955 32.6317 37.5334 32.3714 37.9622C32.1112 38.391 31.9887 38.89 32.0206 39.3914C32.0755 40.3364 32.7068 41.3167 33.9027 41.5236L34.3001 39.208V39.2068ZM49.1525 37.4413C47.0716 38.8518 44.4764 39.4983 41.797 39.6805C39.1258 39.8627 36.4546 39.5794 34.3001 39.2068L33.9027 41.5236C36.1659 41.915 39.0347 42.2253 41.956 42.0267C44.8692 41.8269 47.9168 41.1157 50.4606 39.3902L49.1525 37.4413V37.4413ZM61.1115 40.7079C57.3162 40.7147 53.6061 39.5768 50.4606 37.4413L49.1525 39.3902C52.6848 41.7867 56.8503 43.0641 61.1115 43.0576V40.7067V40.7079Z" fill="#050505"/>
<path d="M50.3879 23.9467C51.7153 23.9467 52.7914 22.8648 52.7914 21.53C52.7914 20.1953 51.7153 19.1133 50.3879 19.1133C49.0605 19.1133 47.9844 20.1953 47.9844 21.53C47.9844 22.8648 49.0605 23.9467 50.3879 23.9467Z" stroke="#050505" stroke-width="2"/>
<path d="M61.1066 23.9467C62.434 23.9467 63.5101 22.8648 63.5101 21.53C63.5101 20.1953 62.434 19.1133 61.1066 19.1133C59.7792 19.1133 58.7031 20.1953 58.7031 21.53C58.7031 22.8648 59.7792 23.9467 61.1066 23.9467Z" stroke="#050505" stroke-width="2"/>
<path d="M71.8215 23.9467C73.1489 23.9467 74.225 22.8648 74.225 21.53C74.225 20.1953 73.1489 19.1133 71.8215 19.1133C70.4941 19.1133 69.418 20.1953 69.418 21.53C69.418 22.8648 70.4941 23.9467 71.8215 23.9467Z" stroke="#050505" stroke-width="2"/>
</g>
<defs>
<linearGradient id="paint0_linear_10_198" x1="5.52548" y1="41.6681" x2="73.1366" y2="41.6681" gradientUnits="userSpaceOnUse">
<stop stop-color="#FFBD39"/>
<stop offset="1" stop-color="#F9953A"/>
</linearGradient>
<clipPath id="clip0_10_198">
<rect width="83" height="67" fill="white"/>
</clipPath>
</defs>
</svg>
