<svg width="125" height="28" viewBox="0 0 125 28" fill="none" xmlns="http://www.w3.org/2000/svg">
<path d="M24.557 3.36595C24.557 2.90694 24.4805 2.67744 24.098 2.67744H23.486C23.4095 2.67744 23.4095 2.67744 23.4095 2.52443V2.29493C23.4095 2.21843 23.4095 2.21843 23.5625 2.21843C23.7155 2.21843 24.3275 2.21843 25.6281 2.21843C26.7756 2.21843 27.3876 2.21843 27.5406 2.21843C27.6936 2.21843 27.6171 2.21843 27.6171 2.29493V2.60094C27.6171 2.67744 27.6171 2.67744 27.5406 2.67744H27.0051C26.6991 2.67744 26.3931 2.90694 26.3166 3.21295C26.3166 3.36595 26.3166 4.20746 26.3166 4.97248V6.73201C26.3166 7.42052 26.3166 8.41504 26.3166 8.87405C26.3166 9.48606 26.4696 10.0981 26.7756 10.5571C27.2346 11.1691 27.9231 11.4751 28.6116 11.3986C29.3001 11.3986 29.9121 11.1691 30.4476 10.7101C30.9831 10.0216 31.2892 9.25655 31.2127 8.33854V5.967C31.2127 5.04898 31.1362 4.20747 31.0597 3.28945C31.0597 2.90694 30.8301 2.67744 30.5241 2.67744H30.0651C29.9886 2.67744 29.9886 2.67744 29.9886 2.60094V2.29493C29.9886 2.21843 29.9886 2.21843 30.0651 2.21843C30.1416 2.21843 30.8301 2.21843 31.7482 2.21843C32.6662 2.21843 33.0487 2.21843 33.1252 2.21843C33.2017 2.21843 33.2782 2.21843 33.2782 2.29493V2.60094C33.2782 2.67744 33.2782 2.75394 33.2017 2.75394H32.7427C32.4367 2.75394 32.2072 2.98344 32.2072 3.28945C32.2072 3.28945 32.2072 3.28945 32.2072 3.36595C32.2072 3.51895 32.2072 5.50799 32.2072 5.66099C32.2072 5.81399 32.2072 8.26204 32.1307 8.79755C32.1307 9.79206 31.7482 10.7866 30.9832 11.4751C30.2946 12.0871 29.3766 12.3931 28.5351 12.3166C27.8466 12.3166 27.2346 12.2401 26.6226 12.0106C25.8576 11.7046 25.2455 11.0161 25.016 10.1746C24.7865 9.10355 24.71 7.95603 24.7865 6.80851V3.36595H24.557Z" fill="#B5B5B5"/>
<path d="M33.5838 8.95063C33.6603 8.95063 33.6603 8.95063 33.6603 9.02713C33.6603 9.56264 33.8898 10.0982 34.1958 10.6337C34.5783 11.2457 35.2668 11.6282 35.9553 11.6282C36.8733 11.7047 37.6384 10.9397 37.7149 10.0217C37.7149 10.0217 37.7149 10.0217 37.7149 9.94515C37.7149 8.64463 37.1028 8.26212 35.7258 7.72661C35.0373 7.42061 34.3488 7.0381 33.7368 6.57909C33.2778 6.04358 32.9718 5.35507 33.0483 4.59005C33.0483 3.82504 33.3543 3.13653 33.9663 2.67752C34.5018 2.21851 35.1903 1.98901 35.8788 1.98901C36.4908 1.98901 37.0263 2.06551 37.5619 2.29501C37.6384 2.37151 37.7914 2.37151 37.8679 2.29501L38.0209 2.14201C38.0974 2.06551 38.1739 2.06551 38.1739 2.06551C38.2504 2.06551 38.2504 2.14201 38.2504 2.29501C38.2504 2.44802 38.4799 4.43705 38.4799 4.59005C38.4799 4.74306 38.4799 4.66656 38.4034 4.66656L38.1739 4.74306C38.0974 4.74306 38.0974 4.74306 38.0209 4.66656V4.59005C37.8679 4.05454 37.5619 3.51904 37.1793 3.13653C36.7968 2.75402 36.3378 2.52452 35.8023 2.60102C34.9608 2.52452 34.3488 3.21303 34.2723 3.97804C34.1958 4.43705 34.3488 4.89606 34.6548 5.20207C35.1138 5.58457 35.7258 5.89058 36.3378 6.04358C37.1028 6.19658 37.7149 6.57909 38.2504 7.1146C38.7094 7.65011 39.0154 8.33862 38.9389 9.10363C39.0154 10.7102 37.8679 12.0872 36.2613 12.1637C36.1848 12.1637 36.1083 12.1637 36.0318 12.1637C35.1903 12.2402 34.4253 12.0107 33.7368 11.4752C33.5838 11.3987 33.5073 11.3222 33.4308 11.3222C33.3543 11.3222 33.2778 11.3987 33.2013 11.5517C33.1248 11.7047 33.0483 11.7047 32.9718 11.7047C32.8953 11.7047 32.8188 11.6282 32.8188 11.4752C32.8188 11.3222 33.0483 9.02713 33.0483 8.87413C33.0483 8.72113 33.0483 8.79763 33.1248 8.79763L33.5838 8.95063Z" fill="#B5B5B5"/>
<path d="M48.6537 9.71565C48.6537 9.79215 48.6537 9.79215 48.6537 9.86865C47.8122 11.2457 46.2822 12.1637 44.5991 12.1637C43.2986 12.2402 41.9981 11.7812 41.0801 10.8632C40.1621 9.86865 39.6265 8.49163 39.6265 7.1146C39.6265 5.73758 40.0855 4.43706 41.0036 3.44254C41.9216 2.44802 43.2221 1.91251 44.5226 1.98901C45.4406 1.98901 46.4352 2.21852 47.2767 2.67752C47.4297 2.83053 47.5062 2.83053 47.5827 2.67752V2.29502C47.5827 2.21852 47.6592 2.21852 47.8122 2.21852C47.9652 2.21852 47.9652 2.21852 47.9652 2.44802C47.9652 2.67752 48.2712 4.89606 48.2712 5.35507C48.2712 5.43157 48.2712 5.50807 48.1947 5.50807L47.9652 5.58458C47.8887 5.58458 47.8887 5.58458 47.8122 5.43157C47.5827 4.74306 47.2767 4.13105 46.7412 3.59554C46.1292 2.90703 45.2876 2.60102 44.3696 2.60102C42.2276 2.60102 41.3096 4.59006 41.3096 6.57909C41.3096 7.87962 41.7686 9.18014 42.5336 10.1747C43.0691 10.8632 43.9106 11.2457 44.8286 11.2457C46.1292 11.2457 47.2767 10.6337 48.0417 9.63915C48.1182 9.56265 48.1947 9.48615 48.1947 9.56265L48.6537 9.71565Z" fill="#B5B5B5"/>
<path d="M53.1688 11.9341C52.3273 11.6281 51.7153 10.9396 51.5623 10.0981C51.3328 8.95058 51.2563 7.87956 51.3328 6.73204V3.36598C51.3328 2.90697 51.2563 2.67746 50.7973 2.67746H50.1853C50.1088 2.67746 50.1088 2.67746 50.1088 2.52446V2.29496C50.1088 2.21846 50.1088 2.21846 50.2618 2.21846C50.4148 2.21846 51.1033 2.21846 52.0978 2.21846C53.0923 2.21846 53.7808 2.21846 53.9338 2.21846C54.0868 2.21846 54.0868 2.21846 54.0868 2.29496V2.60096C54.0868 2.67746 54.0868 2.67746 54.0103 2.67746H53.3218C53.0158 2.67746 52.7098 2.90697 52.7098 3.21297C52.7098 3.36598 52.7098 4.28399 52.7098 4.9725V5.89052C52.7098 6.65553 52.7863 8.41507 52.7863 8.79757C52.7863 9.40958 52.8628 10.0216 53.1688 10.6336C53.7043 11.3221 54.4693 11.7046 55.3109 11.6281C56.0759 11.6281 56.7644 11.3986 57.3764 10.8631C57.9119 10.1746 58.1414 9.33308 58.0649 8.41507V5.50801C58.0649 4.437 58.0649 3.67198 57.9884 3.28948C57.9884 2.98347 57.6824 2.67746 57.3764 2.67746H56.7644C56.6879 2.67746 56.6879 2.67746 56.6879 2.60096V2.21846C56.6879 2.14195 56.6879 2.14195 56.7644 2.14195C56.8409 2.14195 57.5294 2.14195 58.4474 2.14195C59.3654 2.14195 59.8244 2.14195 59.9009 2.14195C59.9774 2.14195 60.0539 2.21846 60.0539 2.21846V2.52446C60.0539 2.60096 60.0539 2.67746 59.9774 2.67746H59.4419C58.9064 2.67746 58.9064 3.05997 58.8299 3.21297C58.7534 3.36598 58.8299 5.35501 58.8299 5.50801C58.8299 5.66102 58.8299 8.10906 58.7534 8.64457C58.7534 9.63909 58.3709 10.6336 57.6059 11.3221C56.9174 11.9341 55.9994 12.2401 55.0049 12.1636C54.3928 12.2401 53.7808 12.1636 53.1688 11.9341Z" fill="#B5B5B5"/>
<path d="M64.7958 11.2456C64.7958 11.4751 64.9488 11.5516 65.1018 11.5516H65.5608C65.7138 11.5516 65.7138 11.6281 65.7138 11.7046V11.9341C65.7138 12.0106 65.7138 12.0871 65.6373 12.0871C65.5608 12.0871 65.0253 12.0106 64.2603 12.0106C63.4953 12.0106 63.1128 12.0871 63.0363 12.0871C62.9598 12.0871 62.9598 12.0106 62.9598 11.9341V11.7046C62.9598 11.6281 63.0363 11.5516 63.1128 11.5516H63.4953C63.6483 11.5516 63.7248 11.4751 63.7248 11.2456C63.7248 11.0161 63.7248 10.4806 63.7248 10.0981V8.26204C63.7248 7.72653 63.7248 7.34402 63.3423 7.03802C63.0363 6.80851 62.7303 6.73201 62.3478 6.80851C61.8887 6.80851 61.5062 7.03802 61.2767 7.34402C61.0472 7.57353 60.9707 7.95603 60.9707 8.26204V11.1691C60.9707 11.5516 60.9707 11.6281 61.2767 11.6281H61.5827C61.6592 11.6281 61.7357 11.7046 61.7357 11.7811V12.0106C61.7357 12.0871 61.7357 12.1636 61.6592 12.1636C61.5827 12.1636 61.2002 12.0871 60.5117 12.0871C59.8232 12.0871 59.3642 12.1636 59.2877 12.1636C59.2112 12.1636 59.2112 12.0871 59.2112 12.0106V11.7811C59.2112 11.7046 59.2112 11.6281 59.3642 11.6281H59.7467C59.8997 11.6281 59.9762 11.5516 59.9762 11.3221V8.10904C59.9762 7.72653 59.7467 7.42052 59.4407 7.26752L59.3642 7.19102C59.2877 7.11452 59.2877 7.11452 59.2877 7.03802V6.96152C59.2877 6.88501 59.3642 6.88501 59.4407 6.80851L60.5882 6.12C60.6647 6.0435 60.7412 6.0435 60.8177 6.0435C60.8942 6.0435 60.8942 6.12 60.8942 6.1965L60.9707 7.03802C61.4297 6.42601 62.1182 6.12 62.8068 6.0435C63.1893 6.0435 63.6483 6.12 63.9543 6.3495C64.3368 6.65551 64.6428 7.11452 64.7193 7.65003L64.7958 11.2456Z" fill="#B5B5B5"/>
<path d="M66.402 3.74861C66.4785 3.36611 66.861 3.0601 67.2435 3.0601C67.626 3.0601 67.932 3.36611 67.932 3.74861C67.932 4.20762 67.626 4.51363 67.167 4.51363C66.7845 4.51363 66.4785 4.20762 66.402 3.74861ZM67.014 8.03269C67.014 7.57368 66.9375 7.34418 66.249 7.19118C66.1725 7.19118 66.096 7.11467 66.096 7.11467V6.96167C66.096 6.88517 66.096 6.88517 66.1725 6.88517C66.708 6.65567 67.167 6.42616 67.626 6.19666C67.7025 6.12016 67.779 6.12016 67.8555 6.12016C67.932 6.12016 67.932 6.19666 67.932 6.27316C67.932 6.50266 67.932 7.34418 67.932 8.4917V10.0217C67.932 10.5572 67.932 11.0927 67.932 11.2457C67.932 11.5518 68.0085 11.6283 68.1615 11.6283H68.85C68.9265 11.6283 69.003 11.7048 69.003 11.7813V12.0108C69.003 12.0873 69.003 12.1638 68.85 12.1638C68.697 12.1638 68.085 12.0873 67.5495 12.0873C66.7845 12.0873 66.249 12.1638 66.096 12.1638C65.943 12.1638 66.0195 12.1638 66.0195 12.0873V11.7813C66.0195 11.7048 66.0195 11.7048 66.1725 11.7048H66.861C67.014 11.7048 67.0905 11.6283 67.0905 11.3988C67.0905 11.0162 67.0905 10.5572 67.0905 10.1747L67.014 8.03269Z" fill="#B5B5B5"/>
<path d="M71.8351 10.7103C72.0646 10.1747 73.0591 7.80321 73.2121 7.2677C73.2886 6.88519 73.2121 6.65569 72.9826 6.65569H72.6766V6.57919V6.27318C72.6766 6.19668 72.6766 6.19668 72.7531 6.19668C72.9061 6.19668 73.2121 6.27318 73.8241 6.27318C74.4361 6.27318 74.6657 6.19668 74.8187 6.19668C74.9717 6.19668 74.9717 6.19668 74.9717 6.34968V6.57919C74.9717 6.65569 74.9717 6.73219 74.8952 6.73219H74.6657C74.5126 6.73219 74.3596 6.80869 74.2066 6.88519C73.7476 7.5737 73.4416 8.33872 73.1356 9.10373C72.9826 9.48624 71.9881 11.8578 71.9116 11.9343C71.8351 12.0108 71.7586 12.2403 71.6056 12.2403C71.4526 12.2403 71.3761 12.0873 71.2996 11.9343C71.2231 11.7813 70.3051 9.25673 70.2286 9.10373C70.1521 8.95073 69.6166 7.4207 69.5401 7.1912C69.3871 6.80869 69.2341 6.65569 69.0045 6.65569H68.775C68.6985 6.65569 68.6985 6.57918 68.6985 6.50268V6.27318C68.6985 6.19668 68.6985 6.19668 68.8515 6.19668C69.0046 6.19668 69.2341 6.27318 69.9991 6.27318C70.7641 6.27318 71.0701 6.19668 71.2231 6.19668C71.3761 6.19668 71.3761 6.19668 71.3761 6.27318V6.50268C71.3761 6.57918 71.3761 6.65569 71.2996 6.65569H70.9936C70.8406 6.65569 70.7641 6.73219 70.7641 6.88519C70.8406 7.4207 70.9936 7.95621 71.2231 8.49172C71.1466 8.87423 71.7586 10.4808 71.8351 10.7103Z" fill="#B5B5B5"/>
<path d="M77.726 7.87954C77.9555 7.87954 78.1085 7.80304 78.1085 7.72654C78.1085 7.42053 77.9555 6.50252 77.0375 6.50252C76.4255 6.50252 75.89 6.88502 75.584 7.95604H77.726V7.87954ZM75.5075 8.33855C75.5075 8.56805 75.5075 8.79756 75.5075 9.02706C75.5075 10.4041 76.349 11.3986 77.42 11.3986C78.1085 11.3986 78.7205 11.0161 79.103 10.4806C79.103 10.4041 79.1795 10.4041 79.256 10.4041L79.409 10.4806C79.4855 10.4806 79.4855 10.5571 79.409 10.7101C78.8735 12.0106 77.42 12.5461 76.1195 12.0106C75.737 11.8576 75.3545 11.5516 75.125 11.2456C74.666 10.6336 74.4365 9.86858 74.513 9.02706C74.513 8.18555 74.819 7.42053 75.3545 6.80852C75.89 6.27301 76.5785 5.96701 77.267 6.04351C78.338 6.04351 79.256 6.96153 79.256 8.10905C79.256 8.26205 79.103 8.33855 78.8735 8.33855H75.5075Z" fill="#B5B5B5"/>
<path d="M80.5557 8.33859C80.5557 7.65008 80.4027 7.49708 80.0967 7.26758L79.8672 7.11457C79.7907 7.11457 79.7907 7.03807 79.7907 7.03807V6.96157C79.7907 6.88507 79.7907 6.88507 79.8672 6.80857L81.0912 6.12005C81.1677 6.12005 81.2442 6.04355 81.2442 6.04355C81.3207 6.04355 81.3207 6.12006 81.3207 6.19656L81.3972 7.11457H81.4737C81.7797 6.50256 82.3917 6.04355 83.0802 5.89055C83.3862 5.89055 83.6922 6.12005 83.7687 6.42606V6.50256C83.7687 6.80857 83.5392 7.11457 83.2332 7.19107C83.0802 7.19107 82.9272 7.11457 82.8507 7.11457C82.6977 7.03807 82.5447 6.96157 82.3917 7.03807C82.0857 7.11457 81.7797 7.26758 81.6267 7.65008C81.5502 7.80308 81.5502 7.95609 81.4737 8.10909V11.0161C81.4737 11.4752 81.5502 11.6282 81.8562 11.6282H82.4682C82.5447 11.6282 82.5447 11.7047 82.5447 11.7812V12.0107C82.5447 12.0872 82.5447 12.1637 82.4682 12.1637C82.3917 12.1637 81.7797 12.0872 81.0147 12.0872C80.2497 12.0872 79.6377 12.1637 79.4847 12.1637C79.3317 12.1637 79.4082 12.1637 79.4082 12.0107V11.7812C79.4082 11.7047 79.4082 11.6282 79.5612 11.6282H80.0967C80.3262 11.6282 80.4027 11.5517 80.4027 11.3221C80.4027 10.8631 80.4027 10.4041 80.4027 9.63912L80.5557 8.33859Z" fill="#B5B5B5"/>
<path d="M84.1505 11.7813C84.074 11.7048 84.074 11.6283 84.074 11.5518L83.8445 10.2512C83.8445 10.1747 83.8445 10.1747 83.921 10.1747L84.074 10.0982C84.1505 10.0982 84.1505 10.0982 84.227 10.1747L84.533 10.8632C84.7625 11.3988 84.992 11.7048 85.6805 11.7048C86.216 11.7813 86.675 11.3223 86.7515 10.7867C86.7515 10.1747 86.4455 9.79222 85.451 9.48622C84.6095 9.25672 83.8445 8.79771 83.8445 7.72669C83.921 6.73217 84.7625 5.96716 85.757 6.04366C86.216 6.04366 86.5985 6.12016 86.981 6.34966C87.2105 6.42617 87.2105 6.50267 87.2105 6.57917L87.4401 7.57369C87.4401 7.65019 87.44 7.65019 87.3635 7.72669L87.2105 7.80319C87.134 7.80319 87.134 7.80319 87.0575 7.72669L86.5985 7.11468C86.4455 6.73217 86.063 6.57917 85.6805 6.57917C85.145 6.50267 84.686 6.96167 84.6095 7.49718C84.6095 8.3387 85.2215 8.4152 85.91 8.6447C86.9045 8.95071 87.5166 9.33322 87.5166 10.4042C87.5166 11.4753 86.675 12.2403 85.604 12.2403C85.5275 12.2403 85.5275 12.2403 85.451 12.2403C84.992 12.1638 84.533 12.0108 84.1505 11.7813Z" fill="#B5B5B5"/>
<path d="M88.3597 3.74861C88.4362 3.36611 88.7422 3.0601 89.2012 3.0601C89.5837 3.0601 89.8897 3.36611 89.8897 3.74861C89.8897 4.20762 89.5837 4.51363 89.1247 4.51363C88.7422 4.51363 88.3597 4.20762 88.3597 3.74861ZM88.9717 8.03269C88.9717 7.57368 88.8952 7.34418 88.2067 7.19118C88.1302 7.19118 88.0537 7.11467 88.0537 7.11467V6.96167C88.0537 6.88517 88.0537 6.88517 88.1302 6.88517C88.6657 6.65567 89.1247 6.42616 89.5837 6.19666C89.6602 6.12016 89.7367 6.12016 89.8132 6.12016C89.8897 6.12016 89.8897 6.19666 89.8897 6.27316C89.8897 6.50266 89.8897 7.34418 89.8897 8.4917V10.0217C89.8897 10.5572 89.8897 11.0927 89.8897 11.2457C89.8897 11.5518 89.9662 11.6283 90.1192 11.6283H90.7312C90.8077 11.6283 90.8842 11.7048 90.8842 11.7813V12.0108C90.8842 12.0873 90.8842 12.1638 90.7312 12.1638C90.5782 12.1638 89.9662 12.0873 89.4307 12.0873C88.6657 12.0873 88.1302 12.1638 87.9772 12.1638C87.8242 12.1638 87.9007 12.1638 87.9007 12.0873V11.7813C87.9007 11.7048 87.9007 11.7048 88.0537 11.7048H88.7422C88.8952 11.7048 88.9717 11.6283 88.9717 11.3988C88.9717 11.0162 88.9717 10.5572 88.9717 10.1747V8.03269Z" fill="#B5B5B5"/>
<path d="M92.6434 10.2511C92.6434 11.3221 93.1024 11.4751 93.3319 11.4751C93.6379 11.4751 93.9439 11.3986 94.2499 11.3221C94.3264 11.2456 94.4029 11.2456 94.4029 11.3221L94.4794 11.4751C94.4794 11.5516 94.4794 11.5516 94.4794 11.6281C94.0204 12.0106 93.4849 12.1636 92.9494 12.1636C92.2609 12.1636 91.7254 11.6281 91.6489 11.0161C91.6489 10.4806 91.6489 9.25659 91.6489 9.02709V8.72108C91.6489 8.49158 91.6489 7.57356 91.6489 6.96155H90.8074C90.6544 6.96155 90.5779 6.88505 90.5779 6.80855C90.5779 6.73205 90.6544 6.65555 90.8074 6.57904C91.4194 6.12004 91.9549 5.50802 92.3374 4.81951C92.3374 4.74301 92.4139 4.66651 92.4904 4.66651C92.5669 4.66651 92.6434 4.74301 92.6434 4.89601L92.5669 6.27304H94.4794C94.556 6.27304 94.6325 6.34954 94.5559 6.42604L94.4029 6.88505C94.4029 6.96155 94.4029 6.96155 94.2499 6.96155H92.4904C92.4904 7.57356 92.4904 8.26207 92.4904 8.87408L92.6434 10.2511Z" fill="#B5B5B5"/>
<path d="M95.015 15.0708C95.015 14.7648 95.321 14.5353 95.627 14.5353C95.8565 14.5353 96.086 14.6118 96.239 14.6883C96.3155 14.6883 96.4685 14.6883 96.545 14.6118C96.9275 13.8468 97.31 13.0818 97.616 12.2403C97.5395 11.9343 96.086 7.5737 96.0095 7.2677C95.933 6.96169 95.7035 6.65569 95.3975 6.65569H95.015C94.9385 6.65569 94.9385 6.57918 94.9385 6.50268V6.27318C94.9385 6.19668 94.9385 6.19668 95.015 6.19668C95.0915 6.19668 95.474 6.27318 96.239 6.27318C97.004 6.27318 97.31 6.19668 97.5395 6.19668C97.769 6.19668 97.6925 6.27318 97.6925 6.27318V6.57918C97.6925 6.65569 97.6925 6.65569 97.616 6.65569H97.3865C97.2335 6.65569 97.157 6.73219 97.2335 6.96169C97.31 7.1912 98.2281 10.3278 98.3811 10.6338H98.4576C98.6106 10.4043 99.7581 7.5737 99.8346 7.1912C99.9111 6.80869 99.8346 6.65569 99.6051 6.65569H99.3756C99.2991 6.65569 99.2991 6.57918 99.2991 6.57918V6.27318C99.2991 6.19668 99.2991 6.19668 99.3756 6.19668C99.4521 6.19668 99.8346 6.27318 100.447 6.27318C100.829 6.27318 101.135 6.19668 101.288 6.19668C101.441 6.19668 101.365 6.27318 101.365 6.27318V6.57918C101.365 6.65569 101.365 6.73219 101.288 6.73219H100.982C100.829 6.73219 100.6 6.80869 100.523 6.96169C99.7581 8.49172 98.9931 10.0217 98.3811 11.6283C97.6925 13.1583 97.157 14.4588 96.9275 14.9178C96.698 15.3768 96.4685 15.8359 95.78 15.8359C95.3975 15.9124 95.0915 15.6063 95.015 15.2238C95.015 15.1473 95.015 15.1473 95.015 15.0708Z" fill="#B5B5B5"/>
<path d="M106.949 9.02726C106.949 7.49723 105.878 6.50271 105.189 6.50271C104.807 6.50271 104.424 6.65571 104.118 6.96172C103.583 7.57373 103.277 8.33874 103.43 9.10376C103.353 9.79227 103.583 10.4808 103.965 11.0163C104.271 11.4753 104.73 11.7813 105.342 11.7048C106.26 11.7813 106.949 10.4808 106.949 9.02726ZM103.047 11.2458C102.512 10.6338 102.206 9.79227 102.282 9.02726C102.282 8.10924 102.741 7.34423 103.43 6.80872C103.965 6.42621 104.577 6.1202 105.266 6.1202C105.954 6.1202 106.643 6.42621 107.178 6.88522C108.402 8.10924 108.402 10.0218 107.178 11.2458C106.643 11.7813 105.878 12.1638 105.113 12.1638C104.271 12.1638 103.506 11.7813 103.047 11.2458Z" fill="#B5B5B5"/>
<path d="M109.472 6.8851H108.554C108.478 6.8851 108.478 6.8851 108.478 6.73209L108.554 6.34959C108.554 6.27308 108.631 6.27308 108.707 6.27308H109.472V5.96708C109.396 4.89606 109.778 3.90154 110.39 3.06003C110.926 2.37151 111.767 1.98901 112.609 1.98901C113.221 1.98901 113.833 2.21851 113.833 2.75402C113.833 3.06003 113.603 3.28953 113.221 3.36603C113.068 3.36603 112.991 3.36603 112.838 3.28953C112.685 3.21303 112.609 3.06003 112.532 2.98353C112.379 2.75402 112.15 2.67752 111.92 2.67752C111.538 2.67752 111.155 2.83052 110.926 3.13653C110.467 3.82504 110.467 4.97256 110.467 5.96708V6.27308H112.073C112.15 6.27308 112.15 6.34959 112.15 6.34959L112.073 6.80859C112.073 6.8851 111.997 6.8851 111.92 6.8851H110.467V8.10912C110.467 9.71565 110.467 11.0162 110.467 11.1692C110.467 11.3222 110.543 11.5517 110.849 11.5517H111.614C111.767 11.5517 111.767 11.5517 111.767 11.6282V11.8577C111.767 11.9342 111.767 12.0107 111.691 12.0107C111.614 12.0107 111.079 11.9342 110.084 11.9342C109.319 11.9342 108.631 12.0107 108.554 12.0107C108.478 12.0107 108.478 12.0107 108.478 11.9342V11.6282C108.478 11.5517 108.478 11.5517 108.631 11.5517H109.319C109.549 11.5517 109.625 11.3987 109.625 11.0927L109.472 6.8851Z" fill="#B5B5B5"/>
<path d="M25.0156 24.4803C24.8625 24.3273 24.786 24.3273 24.7095 24.3273C24.633 24.3273 24.5565 24.4038 24.48 24.5568C24.4035 24.7099 24.327 24.7099 24.2505 24.7099C24.174 24.7099 24.0975 24.6334 24.0975 24.4803C24.174 24.0978 24.2505 22.3383 24.327 21.9558C24.327 21.8793 24.327 21.8793 24.4035 21.8793H24.633C24.7095 21.8793 24.7095 21.8793 24.7095 21.9558C24.7095 22.4913 24.8625 23.1033 25.1686 23.5623C25.5511 24.1743 26.3161 24.6334 27.0811 24.5568C28.0756 24.6334 28.8406 23.8683 28.9171 22.9503C28.9171 22.9503 28.9171 22.9503 28.9171 22.8738C28.9171 21.4203 27.9226 20.8848 26.8516 20.5023C26.0866 20.2728 25.4746 19.8903 24.8625 19.3548C24.4035 18.8192 24.0975 18.0542 24.174 17.3657C24.2505 16.6772 24.48 16.0652 25.0156 15.6062C25.5511 15.1472 26.2396 14.9177 26.9281 14.9177C27.4636 14.9177 27.9991 14.9942 28.5346 15.3002C28.6876 15.3767 28.6876 15.3767 28.7641 15.3002L28.9171 15.1472C28.9936 15.0707 28.9936 15.0707 29.0701 15.0707C29.1466 15.0707 29.1466 15.1472 29.1466 15.3002C29.1466 15.7592 29.2996 17.2127 29.2996 17.5187C29.2996 17.5952 29.2996 17.5952 29.2231 17.5952H29.0701H28.9936C28.8406 16.9832 28.5346 16.4477 28.1521 15.9887C27.7696 15.6062 27.2341 15.3767 26.6986 15.3767C25.8571 15.3767 25.1686 15.9887 25.0921 16.8302C25.0921 16.9067 25.0921 16.9832 25.0921 16.9832C25.0921 17.4422 25.2451 17.8247 25.4746 18.2072C25.9336 18.5897 26.4691 18.8957 27.0046 19.0488C27.8461 19.2018 28.6111 19.5843 29.1466 20.1963C29.5291 20.7318 29.7586 21.4203 29.7586 22.1088C29.7586 23.7153 28.7641 25.1689 27.0046 25.1689C26.3926 25.2454 25.6276 25.0159 25.0156 24.4803Z" fill="#B5B5B5"/>
<path d="M35.2661 21.9558C35.2661 20.4258 34.1951 19.4312 33.5066 19.4312C33.1241 19.4312 32.7416 19.5842 32.4356 19.8902C31.9001 20.5023 31.5941 21.2673 31.7471 22.1088C31.6706 22.7973 31.9001 23.4858 32.2826 24.0213C32.5886 24.4803 33.0476 24.7863 33.6596 24.7098C34.5776 24.7863 35.2661 23.4858 35.2661 21.9558ZM31.3646 24.2508C30.217 22.9503 30.3701 20.9613 31.7471 19.8137C31.7471 19.8137 31.8236 19.8137 31.8236 19.7372C32.8946 18.8192 34.5011 18.8957 35.4956 19.8902C36.7197 21.1143 36.7197 23.0268 35.5721 24.2508C35.0366 24.7863 34.2716 25.1688 33.4301 25.1688C32.6651 25.1688 31.9001 24.7863 31.3646 24.2508Z" fill="#B5B5B5"/>
<path d="M41.9216 22.1853C41.9216 22.8738 41.9216 23.5623 41.9216 23.7918C41.9981 24.2508 42.0746 24.2508 42.3041 24.2508C42.4571 24.2508 42.6101 24.2508 42.7631 24.2508C42.8396 24.2508 42.9161 24.2508 42.9161 24.3273V24.4803C42.9161 24.5568 42.9161 24.5568 42.8396 24.6333L41.3861 25.0923C41.3096 25.0923 41.2331 25.1688 41.0801 25.1688C41.0036 25.1688 41.0036 25.1688 40.9271 25.0158L40.8506 24.2508C40.3916 24.8628 39.7031 25.1688 39.0146 25.2453C38.4791 25.2453 38.0201 25.0158 37.714 24.6333C37.1785 23.8683 37.1785 23.4858 37.1785 21.9558V20.3493C37.1785 19.9668 36.949 19.8903 36.643 19.8138C36.337 19.7372 36.337 19.8138 36.337 19.7372V19.5077C36.337 19.4312 36.337 19.4312 36.49 19.4312H37.714C37.7905 19.4312 37.867 19.4312 37.867 19.4312H38.2496C38.3261 19.4312 38.4026 19.5077 38.4026 19.5842C38.4026 19.5842 38.4026 19.5842 38.4026 19.6607C38.4026 19.8138 38.3261 20.4258 38.3261 21.2673V22.2618C38.2496 22.9503 38.3261 23.7153 38.6321 24.3273C38.8616 24.7098 39.2441 24.8628 39.7031 24.8628C40.1621 24.7863 40.5446 24.5568 40.8506 24.1743C40.9271 24.0978 41.0036 23.9448 41.0036 23.7918V20.4258C41.0036 20.0433 40.7741 19.9668 40.3916 19.9668C40.0091 19.9668 40.0856 19.9668 40.0856 19.8903V19.6607C40.0856 19.5842 40.0856 19.5077 40.2386 19.5077H41.4626C41.5391 19.5077 41.6156 19.5077 41.6921 19.5077H41.8451C41.9216 19.5077 41.9981 19.5842 41.9981 19.5842C41.9216 20.1963 41.9216 20.8083 41.9216 21.4203V22.1853Z" fill="#B5B5B5"/>
<path d="M44.907 23.2565C44.907 24.3275 45.366 24.4805 45.5955 24.4805C45.9015 24.4805 46.2075 24.404 46.5135 24.3275C46.59 24.251 46.59 24.251 46.6665 24.3275L46.743 24.4805C46.8195 24.557 46.8195 24.557 46.743 24.6335C46.284 25.016 45.7485 25.169 45.213 25.169C44.5245 25.169 43.9889 24.6335 43.9124 24.0215C43.9124 23.4095 43.9124 22.262 43.9124 22.0325V21.7265C43.9124 21.497 43.9124 20.5789 43.9124 19.9669H43.1474C42.9944 19.9669 42.9179 19.8904 42.9179 19.8139C42.9179 19.7374 42.9944 19.6609 43.1474 19.5844C43.7594 19.1254 44.2949 18.5134 44.6775 17.8249C44.754 17.7484 44.754 17.6719 44.8305 17.6719C44.907 17.6719 44.9835 17.7484 44.9835 17.9014L44.907 19.2784H46.8195C46.896 19.2784 46.9725 19.3549 46.896 19.4314L46.743 19.8904C46.743 19.9669 46.6665 19.9669 46.59 19.9669H44.8305C44.8305 20.5789 44.8305 21.2675 44.8305 21.8795L44.907 23.2565Z" fill="#B5B5B5"/>
<path d="M48.043 17.4424C48.043 16.6009 47.89 16.4479 47.431 16.2949L47.2015 16.2184C47.125 16.2184 47.125 16.2184 47.125 16.1419V15.9889C47.125 15.9124 47.125 15.9124 47.278 15.8359L48.655 15.0709C48.7315 14.9944 48.8845 14.9944 48.961 14.9944C49.0375 14.9944 49.114 15.0709 49.0375 15.3769C48.961 15.6829 49.0375 18.4369 49.0375 19.1255V20.0435H49.114C49.573 19.508 50.2615 19.202 50.95 19.1255C51.4856 19.1255 51.9446 19.2785 52.3271 19.661C52.7861 20.1965 53.0156 20.9615 52.9391 21.7265V22.4915C52.9391 23.2565 52.9391 24.098 52.9391 24.4041C52.9391 24.6336 53.1686 24.6336 53.4746 24.6336H53.5511C53.6276 24.6336 53.7041 24.6336 53.7041 24.7866V25.0161C53.7041 25.0926 53.7041 25.1691 53.6276 25.1691C53.5511 25.1691 53.0921 25.1691 52.3271 25.1691C51.5621 25.1691 51.1796 25.1691 51.0265 25.1691C50.8735 25.1691 50.8735 25.1691 50.8735 25.0161V24.7866C50.8735 24.7101 50.8735 24.6336 50.95 24.6336H51.2561C51.4856 24.6336 51.7916 24.6336 51.7916 24.4041C51.7916 24.1745 51.7916 23.486 51.7916 23.027V21.956C51.8681 21.344 51.7151 20.732 51.3326 20.273C51.1031 20.0435 50.797 19.8905 50.4145 19.8905C49.9555 19.8905 49.4965 20.12 49.1905 20.5025C49.0375 20.6555 48.961 20.9615 48.8845 21.191V24.251C48.8845 24.7101 48.8845 24.7866 49.1905 24.7866H49.573C49.6495 24.7866 49.726 24.7866 49.726 24.9396V25.1691C49.726 25.2456 49.726 25.3221 49.573 25.3221C49.42 25.3221 48.8845 25.3221 48.2725 25.3221C47.6605 25.3221 47.0485 25.3221 46.972 25.3221C46.8955 25.3221 46.8955 25.3221 46.8955 25.1691V24.9396C46.8955 24.8631 46.972 24.7866 47.125 24.7866H47.431C47.6605 24.7866 47.8135 24.7101 47.89 24.5571C47.9665 24.4041 47.9665 22.7975 47.9665 21.8795L48.043 17.4424Z" fill="#B5B5B5"/>
<path d="M56.8399 20.8849C57.0695 20.8849 57.2225 20.8084 57.2225 20.7319C57.2225 20.4259 57.0694 19.5079 56.1514 19.5079C55.5394 19.5079 55.0039 19.8904 54.6979 20.9614H56.8399V20.8849ZM54.6979 21.3439C54.6979 21.5734 54.6214 21.8029 54.6214 22.0324C54.6214 23.4095 55.4629 24.404 56.5339 24.404C57.2225 24.404 57.8345 24.0215 58.1405 23.486C58.1405 23.4095 58.217 23.4095 58.2935 23.4095L58.4465 23.486C58.4465 23.486 58.523 23.5625 58.4465 23.7155C57.911 25.016 56.4574 25.5515 55.1569 25.016C54.7744 24.863 54.3919 24.557 54.1624 24.251C53.7034 23.639 53.4739 22.874 53.5504 22.0324C53.5504 21.1909 53.8564 20.4259 54.3919 19.8139C54.9274 19.2784 55.6159 18.9724 56.3044 19.0489C57.3755 19.0489 58.2935 19.9669 58.2935 21.1144C58.2935 21.3439 58.1405 21.3439 57.911 21.3439H54.6979Z" fill="#B5B5B5"/>
<path d="M59.6704 21.344C59.6704 20.6555 59.5939 20.5025 59.2114 20.273L58.9054 20.1199C58.8289 20.1199 58.8289 20.1199 58.8289 20.0434V19.9669C58.8289 19.8904 58.8289 19.8904 58.9054 19.8139L60.2824 19.1254C60.3589 19.1254 60.4354 19.0489 60.4354 19.0489C60.5119 19.0489 60.5119 19.1254 60.5119 19.2019L60.5884 20.1199H60.665C60.971 19.5079 61.583 19.0489 62.2715 18.8959C62.5775 18.8959 62.8835 19.1254 62.96 19.4314V19.5079C62.96 19.8139 62.7305 20.1199 62.4245 20.1964C62.2715 20.1964 62.1185 20.1199 62.042 20.1199C61.889 20.0434 61.736 20.0434 61.583 20.0434C61.2005 20.0434 60.8945 20.273 60.7415 20.6555C60.665 20.8085 60.6649 20.9615 60.5884 21.1145V24.0215C60.5884 24.4805 60.6649 24.557 60.971 24.557H61.583C61.6595 24.557 61.6595 24.6335 61.6595 24.71V24.9395C61.6595 25.016 61.6595 25.0925 61.583 25.0925C61.5065 25.0925 60.8945 25.0925 60.1294 25.0925C59.3644 25.0925 58.7524 25.0925 58.6759 25.0925C58.5994 25.0925 58.5994 25.0925 58.5994 24.9395V24.71C58.5994 24.6335 58.5994 24.557 58.7524 24.557H59.2879C59.5174 24.557 59.5939 24.4805 59.5939 24.3275C59.5939 23.8685 59.5939 23.4095 59.5939 22.6445L59.6704 21.344Z" fill="#B5B5B5"/>
<path d="M68.8509 24.251C68.8509 24.4805 69.0039 24.557 69.1569 24.557H69.6159C69.7689 24.557 69.7689 24.6335 69.7689 24.71V24.9395C69.7689 25.016 69.7689 25.0925 69.6924 25.0925C69.6159 25.0925 69.1569 25.0925 68.3919 25.0925C67.6269 25.0925 67.2444 25.0925 67.1679 25.0925C67.0914 25.0925 67.0914 25.0925 67.0914 24.9395V24.71C67.0914 24.6335 67.0914 24.557 67.2444 24.557H67.6269C67.7799 24.557 67.8564 24.4805 67.9329 24.251C68.0094 24.0214 67.9329 23.4859 67.9329 23.1034V21.2674C67.9329 20.7319 67.9329 20.3494 67.5504 20.0434C67.2444 19.8139 66.9384 19.7374 66.5559 19.8139C66.0969 19.8139 65.7144 20.0434 65.4849 20.3494C65.2554 20.5789 65.1789 20.9614 65.1789 21.2674V24.1744C65.1789 24.557 65.2554 24.6335 65.4849 24.6335H65.7909C65.9439 24.6335 65.9439 24.71 65.9439 24.7865V25.016C65.9439 25.0925 65.9439 25.169 65.8674 25.169C65.7909 25.169 65.4084 25.169 64.7198 25.169C64.0313 25.169 63.5723 25.169 63.4958 25.169C63.4193 25.169 63.4193 25.169 63.4193 25.016V24.7865C63.4193 24.71 63.4193 24.6335 63.5723 24.6335H63.9548C64.1078 24.6335 64.1843 24.6335 64.1843 24.3275V21.1144C64.1843 20.7319 63.9548 20.4259 63.6488 20.2729L63.4958 20.1964C63.4193 20.1964 63.4193 20.1199 63.4193 20.0434V19.9669C63.4193 19.8904 63.4958 19.8139 63.5723 19.8139L64.7198 19.1254C64.7963 19.0489 64.8729 19.0489 64.9494 19.0489C65.0259 19.0489 65.0259 19.1254 65.1024 19.2019L65.1789 20.0434C65.6379 19.4314 66.3264 19.1254 67.0149 19.0489C67.9329 18.9724 68.7744 19.6609 68.8509 20.6554V24.251Z" fill="#B5B5B5"/>
<path d="M75.5057 23.9448C74.5877 22.8738 74.0522 21.4968 74.0522 20.0433C74.0522 18.6662 74.5112 17.3657 75.4292 16.3712C76.3472 15.4532 77.5712 14.9177 78.7953 14.9942C79.7898 14.9942 80.7078 15.3002 81.5493 15.7592C81.7023 15.8357 81.7788 15.8357 81.8553 15.7592L81.9318 15.3767C81.9318 15.3002 82.0083 15.3002 82.0848 15.3002C82.1613 15.3002 82.2378 15.3002 82.2378 15.5297C82.2378 15.7592 82.4673 17.8247 82.5438 18.2072C82.5438 18.2837 82.5438 18.3602 82.4673 18.3602L82.2378 18.4367C82.1613 18.4367 82.1613 18.4367 82.0848 18.3602C81.8553 17.7482 81.4728 17.1362 81.0138 16.6007C80.4018 15.9122 79.6368 15.5297 78.7188 15.5297C76.2707 15.5297 75.3527 17.7482 75.3527 19.7373C75.3527 21.0378 75.8117 22.2618 76.6532 23.3328C77.2652 24.0978 78.2597 24.5568 79.2543 24.4803C80.5548 24.4803 81.8553 23.7918 82.6203 22.7208C82.6203 22.6443 82.6968 22.6443 82.6968 22.6443L82.8498 22.7973C82.8498 22.7973 82.9263 22.8738 82.8498 22.9503C82.0083 24.3273 80.4783 25.2454 78.7953 25.2454C77.6477 25.2454 76.4237 24.7864 75.5057 23.9448Z" fill="#B5B5B5"/>
<path d="M86.2941 21.9559C85.8351 22.3384 84.4581 22.6444 84.4581 23.7919C84.3816 24.1744 84.6876 24.4804 85.0701 24.5569C85.1466 24.5569 85.1466 24.5569 85.2231 24.5569C85.6056 24.5569 86.2941 24.0979 86.2941 23.7154V21.9559ZM87.2886 23.3329C87.2886 24.0979 87.4416 24.4039 87.6711 24.4039C87.8241 24.4039 88.0536 24.3274 88.1301 24.1744C88.2066 24.0979 88.2066 24.0979 88.2831 24.0979L88.4361 24.1744C88.4361 24.2509 88.5126 24.2509 88.4361 24.4039C88.2831 24.7864 87.8241 25.0925 87.3651 25.0925C86.8296 25.0925 86.4471 24.6334 86.4471 24.1744C86.0646 24.5569 85.6056 24.863 85.0701 25.016C84.8406 25.0925 84.5346 25.0925 84.3051 25.0925C83.9991 25.0925 83.4636 24.7864 83.4636 23.9449C83.4636 23.3329 83.7696 22.7974 84.8406 22.2619C85.3761 22.0324 85.9116 21.8029 86.3706 21.4969V20.6554C86.3706 20.4259 86.2941 20.1199 86.2176 19.8904C85.9881 19.6609 85.6821 19.5844 85.3761 19.5844C85.0701 19.5844 84.7641 19.6609 84.4581 19.8904C84.3051 20.0434 84.3816 20.2729 84.3816 20.5024C84.3816 20.9614 84.2286 21.2674 83.6931 21.2674C83.4636 21.2674 83.3871 21.1144 83.3871 20.8084C83.4636 20.2729 83.8461 19.7374 84.3051 19.5079C84.7641 19.2018 85.3761 19.0488 85.9881 19.0488C86.3706 18.9723 86.7531 19.1253 87.0591 19.4314C87.2886 19.7374 87.3651 20.0434 87.3651 20.4259V23.3329H87.2886Z" fill="#B5B5B5"/>
<path d="M90.7305 20.8849C90.7305 21.5734 90.7305 23.7155 90.7305 24.098C90.7305 24.3275 90.807 24.557 91.113 24.557H91.725C91.878 24.557 91.878 24.6335 91.878 24.71V24.9395C91.878 25.016 91.878 25.0925 91.8015 25.0925C91.725 25.0925 91.113 25.0925 90.2715 25.0925C89.43 25.0925 88.8944 25.0925 88.7414 25.0925C88.5884 25.0925 88.6649 25.016 88.6649 24.9395V24.71C88.6649 24.6335 88.6649 24.557 88.8179 24.557H89.43C89.583 24.557 89.736 24.4805 89.736 24.1745C89.736 23.7155 89.736 21.3439 89.736 20.5789V19.7374C89.736 18.7429 89.736 17.5189 89.736 17.1364C89.736 16.7539 89.43 16.3714 89.0474 16.2949L88.7414 16.2184C88.6649 16.2184 88.6649 16.2184 88.6649 16.1418V16.0653C88.6649 15.9888 88.7414 15.9888 88.8179 15.9888C89.3534 15.7593 89.889 15.4533 90.4245 15.2238C90.501 15.1473 90.5775 15.1473 90.7305 15.1473C90.807 15.1473 90.8835 15.2238 90.807 15.3768C90.807 16.1418 90.7305 19.0489 90.7305 19.8139V20.8849Z" fill="#B5B5B5"/>
<path d="M92.4135 16.7538C92.4135 16.2948 92.796 15.9888 93.1785 15.9888C93.561 15.9888 93.867 16.2948 93.867 16.6773C93.867 17.1363 93.561 17.4423 93.102 17.4423C92.796 17.4423 92.4135 17.1363 92.4135 16.7538ZM93.0255 20.9614C93.0255 20.5023 92.949 20.2728 92.2605 20.1198C92.184 20.1198 92.1075 20.1198 92.1075 20.0433V19.8903C92.1075 19.8903 92.1075 19.8138 92.184 19.8138C92.7195 19.6608 93.1785 19.4313 93.6375 19.1253C93.714 19.0488 93.7905 19.0488 93.867 19.0488C93.9435 19.0488 93.9435 19.1253 93.9435 19.2018C93.9435 19.4313 93.9435 20.3493 93.9435 21.4969V23.0269C93.9435 23.5624 93.9435 24.0979 93.9435 24.2509C93.9435 24.4039 94.02 24.6334 94.173 24.6334H94.785C94.8615 24.6334 94.938 24.6334 94.938 24.7864V25.0159C94.938 25.0924 94.938 25.1689 94.785 25.1689C94.632 25.1689 94.0965 25.1689 93.4845 25.1689C92.7195 25.1689 92.184 25.1689 92.031 25.1689C91.878 25.1689 91.9545 25.1689 91.9545 25.0924V24.7864C91.9545 24.7099 92.031 24.6334 92.1075 24.6334H92.796C92.949 24.6334 93.0255 24.5569 93.0255 24.3274C93.0255 23.9449 93.0255 23.4859 93.0255 23.1034V20.9614Z" fill="#B5B5B5"/>
<path d="M96.467 19.8905H95.5489C95.4724 19.8905 95.4724 19.8905 95.4724 19.7375L95.5489 19.355C95.5489 19.2785 95.6254 19.2785 95.7019 19.2785H96.467V18.9725C96.3905 17.9014 96.6965 16.9069 97.385 16.0654C97.9205 15.3769 98.762 14.9944 99.6035 14.9944C100.216 14.9944 100.828 15.2239 100.828 15.7594C100.828 16.0654 100.598 16.2949 100.216 16.3714C100.063 16.3714 99.986 16.3714 99.833 16.2949C99.68 16.2184 99.6035 16.0654 99.527 15.9889C99.374 15.7594 99.1445 15.6829 98.915 15.6829C98.5325 15.6829 98.15 15.8359 97.9205 16.1419C97.385 16.8304 97.4615 17.9779 97.4615 18.9725V19.2785H99.068C99.1445 19.2785 99.1445 19.355 99.1445 19.4315L99.068 19.8905C99.068 19.967 98.9915 19.967 98.915 19.967H97.385V21.191C97.385 22.7975 97.385 24.098 97.385 24.251C97.385 24.4041 97.4615 24.6336 97.7675 24.6336H98.5325C98.6855 24.6336 98.6855 24.6336 98.6855 24.7866V25.0161C98.6855 25.0926 98.6855 25.1691 98.609 25.1691C98.5325 25.1691 97.997 25.1691 97.0025 25.1691C96.2375 25.1691 95.5489 25.1691 95.4724 25.1691C95.3959 25.1691 95.3959 25.1691 95.3959 25.0926V24.7866C95.3959 24.7101 95.3959 24.7101 95.5489 24.7101H96.1609C96.3905 24.7101 96.467 24.5571 96.467 24.251V19.8905Z" fill="#B5B5B5"/>
<path d="M103.276 21.9558C103.276 20.4258 102.205 19.4312 101.517 19.4312C101.134 19.4312 100.752 19.5842 100.446 19.8902C99.9104 20.5023 99.6043 21.2673 99.7573 22.1088C99.6808 22.7973 99.9104 23.4858 100.293 24.0213C100.599 24.4803 101.058 24.7863 101.67 24.7098C102.588 24.7863 103.276 23.4858 103.276 21.9558ZM99.3748 24.2508C98.2273 22.9503 98.3803 20.9613 99.6809 19.8137L99.7573 19.7372C100.828 18.8192 102.435 18.8957 103.506 19.8902C104.73 21.1143 104.73 23.0268 103.506 24.2508C102.97 24.7863 102.205 25.1688 101.44 25.1688C100.599 25.1688 99.9103 24.7863 99.3748 24.2508Z" fill="#B5B5B5"/>
<path d="M105.418 21.344C105.418 20.6555 105.342 20.5025 104.959 20.273L104.73 20.1199C104.653 20.1199 104.653 20.1199 104.653 20.0434V19.9669C104.653 19.8904 104.653 19.8904 104.73 19.8139L106.107 19.1254C106.183 19.1254 106.26 19.0489 106.26 19.0489C106.336 19.0489 106.336 19.1254 106.336 19.2019L106.413 20.1199H106.489C106.795 19.5079 107.407 19.0489 108.096 18.8959C108.402 18.8959 108.708 19.1254 108.784 19.4314V19.5079C108.784 19.8139 108.555 20.1199 108.249 20.1964C108.096 20.1964 107.943 20.1199 107.866 20.1199C107.713 20.0434 107.56 20.0434 107.407 20.0434C107.101 20.1199 106.795 20.273 106.642 20.6555C106.566 20.8085 106.489 20.9615 106.489 21.1145V24.0215C106.489 24.4805 106.566 24.557 106.872 24.557H107.484C107.56 24.557 107.56 24.6335 107.56 24.71V24.9395C107.56 25.016 107.56 25.0925 107.484 25.0925C107.407 25.0925 106.795 25.0925 106.03 25.0925C105.265 25.0925 104.653 25.0925 104.577 25.0925C104.5 25.0925 104.5 25.0925 104.5 24.9395V24.71C104.5 24.6335 104.5 24.557 104.653 24.557H105.189C105.418 24.557 105.495 24.4805 105.495 24.3275C105.495 23.8685 105.495 23.4095 105.495 22.6445L105.418 21.344Z" fill="#B5B5B5"/>
<path d="M114.523 24.2509C114.523 24.4804 114.676 24.5569 114.829 24.5569H115.288C115.441 24.5569 115.441 24.6334 115.441 24.7099V24.9394C115.441 25.0159 115.441 25.0924 115.365 25.0924C115.288 25.0924 114.829 25.0924 114.064 25.0924C113.299 25.0924 112.916 25.0924 112.84 25.0924C112.763 25.0924 112.763 25.0924 112.763 24.9394V24.7099C112.763 24.6334 112.84 24.5569 112.916 24.5569H113.299C113.452 24.5569 113.529 24.4804 113.605 24.2509C113.682 24.0214 113.605 23.4859 113.605 23.1033V21.2673C113.605 20.7318 113.605 20.3493 113.222 20.0433C112.916 19.8138 112.61 19.7373 112.228 19.8138C111.769 19.8138 111.386 20.0433 111.157 20.3493C110.927 20.5788 110.851 20.9613 110.851 21.2673V24.1744C110.851 24.5569 110.927 24.6334 111.157 24.6334H111.463C111.539 24.6334 111.616 24.7099 111.616 24.7864V25.0159C111.616 25.0924 111.616 25.1689 111.539 25.1689C111.463 25.1689 111.08 25.1689 110.392 25.1689C109.703 25.1689 109.244 25.1689 109.168 25.1689C109.091 25.1689 109.091 25.1689 109.091 25.0159V24.7864C109.091 24.7099 109.091 24.6334 109.244 24.6334H109.627C109.78 24.6334 109.933 24.6334 109.933 24.3274V21.1143C109.933 20.7318 109.703 20.4258 109.397 20.2728L109.321 20.1963C109.244 20.1963 109.244 20.1198 109.244 20.0433V19.9668C109.244 19.8903 109.321 19.8138 109.397 19.8138L110.545 19.1253C110.621 19.0488 110.698 19.0488 110.774 19.0488C110.851 19.0488 110.851 19.1253 110.851 19.2018L110.927 20.0433C111.386 19.5078 112.075 19.1253 112.763 19.0488C113.682 18.8958 114.6 19.5843 114.753 20.5788V20.6553V24.2509H114.523Z" fill="#B5B5B5"/>
<path d="M116.128 16.7538C116.128 16.2948 116.511 15.9888 116.893 15.9888C117.276 15.9888 117.582 16.2948 117.582 16.6773C117.582 17.1363 117.276 17.4423 116.817 17.4423C116.511 17.4423 116.205 17.1363 116.128 16.7538ZM116.74 20.9614C116.74 20.5023 116.664 20.2728 115.975 20.1198C115.899 20.1198 115.822 20.1198 115.822 20.0433V19.8903C115.822 19.8138 115.822 19.8138 115.899 19.8138C116.434 19.5843 116.893 19.4313 117.352 19.1253C117.429 19.0488 117.505 19.0488 117.582 19.0488C117.658 19.0488 117.658 19.1253 117.658 19.2018C117.658 19.4313 117.658 20.3493 117.658 21.4969V23.0269C117.658 23.5624 117.658 24.0979 117.658 24.2509C117.658 24.4039 117.735 24.6334 117.888 24.6334H118.5C118.576 24.6334 118.653 24.6334 118.653 24.7864V25.0159C118.653 25.0924 118.653 25.1689 118.5 25.1689C118.347 25.1689 117.735 25.1689 117.199 25.1689C116.434 25.1689 115.899 25.1689 115.746 25.1689C115.593 25.1689 115.669 25.1689 115.669 25.0924V24.7864C115.669 24.7099 115.746 24.6334 115.822 24.6334H116.511C116.664 24.6334 116.74 24.5569 116.74 24.3274C116.74 23.9449 116.74 23.4859 116.74 23.1034V20.9614Z" fill="#B5B5B5"/>
<path d="M122.02 21.9559C121.561 22.3384 120.184 22.6444 120.184 23.7919C120.107 24.1744 120.413 24.4804 120.796 24.5569C120.872 24.5569 120.872 24.5569 120.949 24.5569C121.331 24.5569 122.02 24.0979 122.02 23.7154V21.9559ZM123.014 23.3329C123.014 24.0979 123.167 24.4039 123.397 24.4039C123.55 24.4039 123.779 24.3274 123.856 24.1744C123.932 24.0979 123.932 24.0979 124.009 24.0979L124.162 24.1744C124.238 24.2509 124.238 24.2509 124.162 24.4039C124.009 24.7864 123.55 25.0925 123.091 25.0925C122.555 25.0925 122.173 24.6334 122.096 24.1744C121.714 24.5569 121.255 24.863 120.719 25.016C120.49 25.0925 120.184 25.0925 119.954 25.0925C119.648 25.0925 119.112 24.7864 119.112 23.9449C119.112 23.3329 119.418 22.7974 120.49 22.2619C121.025 22.0324 121.561 21.8029 122.02 21.4969V20.6554C122.02 20.4259 121.943 20.1199 121.867 19.8904C121.637 19.6609 121.331 19.5844 121.025 19.5844C120.719 19.5844 120.413 19.6609 120.184 19.8904C120.031 20.0434 120.107 20.2729 120.107 20.5024C120.107 20.9614 119.954 21.2674 119.419 21.2674C119.189 21.2674 119.112 21.1144 119.112 20.8084C119.189 20.2729 119.571 19.7374 120.031 19.5079C120.49 19.2018 121.102 19.0488 121.714 19.0488C122.096 18.9723 122.479 19.1253 122.785 19.4314C123.014 19.6609 123.167 20.0434 123.091 20.4259L123.014 23.3329Z" fill="#B5B5B5"/>
<path d="M6.50144 14.7646H5.43042C5.27742 14.7646 5.20092 14.7646 5.20092 14.6116C5.20092 14.5351 5.20092 14.4586 5.35392 14.3821C5.35392 14.3821 5.35392 14.3821 5.43042 14.3821C5.43042 14.4586 5.43042 14.5351 5.43042 14.5351C5.43042 14.6116 5.50693 14.6116 5.65993 14.6116H6.80745C6.73095 14.7646 6.50144 14.7646 6.50144 14.7646Z" fill="#B5B5B5"/>
<path d="M6.19626 19.5078H5.73725C5.66075 19.5078 5.58425 19.5078 5.50774 19.4313C5.50774 19.3548 5.50774 19.2783 5.58425 19.2783V19.3548C5.58425 19.4313 5.66075 19.4313 5.73725 19.4313H6.34926C6.34926 19.5078 6.19626 19.5078 6.19626 19.5078Z" fill="#B5B5B5"/>
<path d="M6.88577 14.1527C7.11527 13.9232 7.19177 13.6172 7.11527 13.3112C7.03877 13.0052 7.03877 12.6992 7.11527 12.3932L7.19177 12.2402H6.96227C6.80927 12.2402 6.65626 12.3932 6.50326 12.5462C6.27376 12.1637 5.96775 11.8577 5.50874 11.6282C5.66175 12.0872 5.66175 12.3167 5.58525 12.4697C5.43224 12.3167 5.20274 12.1637 4.97323 12.1637H4.82023L4.89673 12.2402C4.97323 12.4697 4.97323 12.7757 4.82023 12.9287C4.74373 13.0817 4.66723 13.3112 4.66723 13.5407C4.66723 13.7702 4.74373 13.9997 4.97323 14.1527C4.89673 14.2292 4.82023 14.3822 4.82023 14.5352C4.82023 14.6882 4.89673 14.9177 5.04974 14.9942C5.12624 15.1472 5.20274 15.3002 5.35574 15.3767L5.50874 18.8958C5.27924 18.9723 5.04974 19.2018 5.12624 19.4313C5.12624 19.6608 5.35574 19.8138 5.58525 19.8138L5.66175 21.2673C5.66175 21.4968 5.81475 21.6498 6.04425 21.6498C6.27376 21.6498 6.42676 21.4968 6.42676 21.2673L6.50326 19.8138C6.73277 19.8138 6.88577 19.5843 6.88577 19.3548C6.88577 19.1253 6.73277 18.9723 6.50326 18.8958L6.65626 15.3767C6.73277 15.3002 6.88577 15.1472 6.88577 14.9942C7.11527 14.8412 7.19177 14.5352 7.03877 14.2292C7.03877 14.2292 6.96227 14.1527 6.88577 14.1527ZM6.88577 12.4697C6.80927 12.7757 6.88577 13.0817 6.96227 13.3112C7.03877 13.6172 6.96227 13.8467 6.65626 13.9997H6.27376C6.50326 13.6937 6.65626 13.3877 6.65626 13.0052C6.65626 12.9287 6.65626 12.8522 6.65626 12.6992V12.6227C6.73277 12.6227 6.80927 12.5462 6.88577 12.4697ZM5.89125 11.9342C6.19726 12.1637 6.42676 12.6227 6.50326 13.0052C6.50326 13.3877 6.27376 13.6937 6.04425 13.9997C5.96775 13.8467 5.89125 13.6937 5.89125 13.5407C5.89125 13.3112 5.96775 13.1582 6.04425 13.0052C5.89125 13.1582 5.81475 13.3112 5.73825 13.4642C5.73825 13.6172 5.73825 13.8467 5.89125 13.9997H5.73825C5.50874 13.7702 5.50874 13.3877 5.66175 13.1582C5.66175 13.0817 5.89125 12.8522 5.89125 12.7757C5.89125 12.6992 5.89125 12.6992 5.89125 12.6227L5.81475 12.6992C5.73825 12.7757 5.58525 12.9287 5.50874 13.0052C5.35574 13.3877 5.35574 13.7702 5.50874 13.9997H5.43224C5.27924 13.8467 5.20274 13.6172 5.27924 13.3877C5.20274 12.8522 5.96775 12.7757 5.89125 11.9342ZM4.82023 13.5407C4.82023 13.3877 4.89673 13.1582 4.97323 13.0052C5.12624 12.7757 5.12624 12.5462 5.12624 12.3167C5.27924 12.3932 5.35574 12.4697 5.43224 12.5462C5.35574 12.6227 5.27924 12.6992 5.27924 12.7757C4.97323 13.0817 4.89673 13.6172 5.20274 13.9997C4.97323 13.9997 4.82023 13.7702 4.82023 13.5407ZM6.12075 21.2673C6.12075 21.3438 6.04425 21.4203 5.96775 21.4203C5.89125 21.4203 5.81475 21.3438 5.81475 21.2673L5.73825 19.8903H5.81475L5.89125 21.2673C5.89125 21.3438 5.96775 21.4203 5.96775 21.4203V19.9668H6.27376L6.12075 21.2673ZM6.57976 19.3548C6.57976 19.5078 6.50326 19.5843 6.35026 19.5843H5.58525C5.43224 19.5843 5.35574 19.4313 5.35574 19.3548C5.35574 19.2783 5.43224 19.1253 5.58525 19.1253H6.35026C6.50326 19.1253 6.57976 19.2783 6.57976 19.3548ZM5.50874 15.4532H5.66175L5.81475 18.8958H5.66175L5.50874 15.4532ZM5.81475 15.4532C5.96775 15.4532 6.19726 15.4532 6.42676 15.4532L6.27376 18.8958H5.89125L5.81475 15.4532ZM6.35026 15.2237H5.58525C5.43224 15.2237 5.35574 15.1472 5.27924 15.0707H6.65626C6.57976 15.1472 6.42676 15.2237 6.35026 15.2237ZM6.65626 14.8412H5.20274C5.04974 14.8412 4.89673 14.6882 4.97323 14.5352C4.97323 14.3822 5.04974 14.2292 5.20274 14.2292H6.65626C6.80927 14.2292 6.96227 14.3822 6.88577 14.6117C6.88577 14.6882 6.80927 14.8412 6.65626 14.8412Z" fill="#B5B5B5"/>
<path d="M15.1467 14.7646H14.0757C13.9227 14.7646 13.8462 14.7646 13.7697 14.6116C13.7697 14.5351 13.7697 14.3821 13.9227 14.3821C13.9227 14.4586 13.9227 14.5351 13.9227 14.5351C13.9227 14.6116 13.9992 14.6116 14.1522 14.6116H15.2997C15.2997 14.7646 15.1467 14.7646 15.1467 14.7646Z" fill="#B5B5B5"/>
<path d="M14.8415 19.5078H14.306C14.2295 19.5078 14.153 19.5078 14.0765 19.4313C14.0765 19.3548 14.0765 19.2783 14.153 19.2783V19.3548C14.153 19.4313 14.2295 19.4313 14.306 19.4313H14.918C14.9945 19.5078 14.8415 19.5078 14.8415 19.5078Z" fill="#B5B5B5"/>
<path d="M15.5286 14.1527C15.7581 13.9232 15.8346 13.6172 15.7581 13.3112C15.6816 13.0052 15.6816 12.6992 15.7581 12.3932L15.8346 12.2402H15.6816C15.5286 12.2402 15.3756 12.3932 15.2226 12.5462C14.9931 12.1637 14.6871 11.8577 14.2281 11.6282C14.3811 12.0872 14.3811 12.3167 14.3046 12.4697C14.1516 12.3167 13.9221 12.1637 13.6926 12.1637H13.5396L13.6161 12.3167C13.6926 12.5462 13.6926 12.8522 13.5396 13.0052C13.4631 13.1582 13.3866 13.3877 13.3866 13.6172C13.3866 13.8467 13.4631 14.0762 13.6926 14.2292C13.4631 14.4587 13.4631 14.7647 13.6926 14.9942L13.7691 15.0707C13.8456 15.2237 13.9221 15.3767 14.0751 15.4532L14.2281 18.9723C13.9986 19.0488 13.8456 19.2018 13.8456 19.4313C13.8456 19.6608 13.9986 19.8903 14.2281 19.8903L14.3046 21.3438C14.3046 21.5733 14.4576 21.7263 14.6871 21.7263C14.9166 21.7263 15.0696 21.5733 15.0696 21.3438L15.1461 19.8903C15.3756 19.8903 15.5286 19.6608 15.5286 19.4313C15.5286 19.2018 15.3756 19.0488 15.1461 18.9723L15.2991 15.4532C15.4521 15.3767 15.5286 15.2237 15.6051 15.0707C15.8346 14.9177 15.9111 14.5352 15.7581 14.3057C15.6051 14.2292 15.6051 14.1527 15.5286 14.1527ZM15.4521 12.4697C15.3756 12.7757 15.4521 13.0817 15.5286 13.3112C15.6051 13.6172 15.5286 13.8467 15.2226 13.9997H14.8401C15.0696 13.6937 15.2226 13.3877 15.2226 13.0052C15.2226 12.9287 15.2226 12.8522 15.2226 12.6992V12.6227C15.3756 12.6227 15.4521 12.5462 15.4521 12.4697ZM14.5341 11.9342C14.8401 12.1637 15.0696 12.6227 15.1461 13.0052C15.1461 13.3877 14.9931 13.6937 14.6871 13.9997C14.4576 13.6937 14.4576 13.3112 14.6871 12.9287C14.5341 13.0817 14.4576 13.2347 14.3811 13.3877C14.3811 13.5407 14.3811 13.7702 14.5341 13.9232H14.3811C14.1516 13.6937 14.1516 13.3112 14.3046 13.0817C14.3046 13.0052 14.5341 12.7757 14.5341 12.6992C14.5341 12.6227 14.5341 12.6227 14.5341 12.5462C14.5341 12.6227 14.4576 12.6227 14.4576 12.6227C14.3811 12.6992 14.2281 12.8522 14.1516 12.9287C13.9221 13.2347 13.9221 13.6172 14.1516 13.8467H13.9986C13.8456 13.6937 13.7691 13.4642 13.8456 13.2347C13.8456 12.8522 14.6106 12.7757 14.5341 11.9342ZM13.4631 13.5407C13.4631 13.3877 13.5396 13.1582 13.6161 13.0052C13.7691 12.7757 13.7691 12.5462 13.7691 12.3167C13.9221 12.3932 13.9986 12.4697 14.0751 12.5462L13.9221 12.7757C13.6161 13.0817 13.5396 13.6172 13.8456 13.9997C13.6161 13.9997 13.4631 13.7702 13.4631 13.5407ZM14.7636 21.2673C14.7636 21.3438 14.7636 21.4203 14.6106 21.4968C14.5341 21.4968 14.4576 21.4968 14.3811 21.3438V21.2673L14.3046 19.8903H14.3811L14.4576 21.2673C14.4576 21.3438 14.5341 21.4203 14.5341 21.4203V19.9668H14.8401L14.7636 21.2673ZM15.2226 19.3548C15.2226 19.5078 15.1461 19.5843 14.9931 19.5843H14.2281C14.0751 19.5843 13.9986 19.4313 13.9986 19.3548C13.9986 19.2018 14.0751 19.1253 14.2281 19.1253H14.9931C15.1461 19.1253 15.2226 19.2018 15.2226 19.3548ZM14.1516 15.4532H14.3046L14.4576 18.8958H14.3811L14.1516 15.4532ZM14.4576 15.4532C14.6106 15.4532 14.8401 15.4532 15.0696 15.4532L14.9166 18.8958H14.5341L14.4576 15.4532ZM14.9931 15.2237H14.2281C14.0751 15.2237 13.9986 15.1472 13.9221 15.0707H15.2991C15.2226 15.1472 15.1461 15.2237 14.9931 15.2237ZM15.3756 14.8412H13.9221C13.7691 14.8412 13.6161 14.6882 13.6926 14.5352C13.6926 14.3822 13.7691 14.2292 13.9221 14.2292H15.2991C15.4521 14.2292 15.6051 14.3822 15.5286 14.6117C15.5286 14.6882 15.4521 14.8412 15.3756 14.8412Z" fill="#B5B5B5"/>
<path d="M11.6281 14.4588C11.9341 14.1527 12.0871 13.6937 11.9341 13.3112C11.7811 12.8522 11.7811 12.3932 11.9341 11.9342L12.0106 11.7812H11.8576C11.6281 11.8577 11.3986 12.0107 11.2456 12.1637C11.0161 11.7047 10.6336 11.3222 10.1745 11.0162L9.94505 10.8632L10.0215 11.1692C10.098 11.3987 10.098 11.6282 10.0215 11.8577C10.0215 11.9342 9.94505 12.0107 9.94505 12.0872C9.71554 11.8577 9.40954 11.7047 9.10353 11.6282H8.95053L9.02703 11.7812C9.18003 12.0872 9.10353 12.4697 8.95053 12.7757C8.79753 13.0052 8.72102 13.3112 8.72102 13.6172C8.72102 13.9232 8.87403 14.2292 9.18003 14.4588C9.02703 14.6118 8.95053 14.7648 8.95053 14.9943C8.95053 15.2238 9.10353 15.4533 9.33303 15.6063C9.33303 15.8358 9.48604 15.9888 9.71554 16.1418L9.94505 21.1144C9.40954 21.1909 9.18003 21.4204 9.18003 21.7264C9.18003 22.0324 9.40954 22.2619 9.71554 22.3384L9.79204 24.3274C9.79204 24.6334 10.0215 24.7864 10.2511 24.7864C10.5571 24.7864 10.7866 24.5569 10.7866 24.3274L10.8631 22.3384C11.1691 22.3384 11.3986 22.0324 11.3986 21.7264C11.3986 21.4204 11.1691 21.1909 10.8631 21.1144L11.0926 16.1418C11.3221 16.0653 11.4751 15.8358 11.4751 15.6063C11.7811 15.4533 11.9341 14.9943 11.7046 14.6883C11.7811 14.6118 11.7046 14.5353 11.6281 14.4588ZM11.6281 12.0872C11.5516 12.5462 11.5516 12.9287 11.7046 13.3877C11.8576 13.7702 11.7046 14.2292 11.3221 14.3823H10.7101C11.0161 13.9997 11.2456 13.4642 11.2456 12.9287C11.2456 12.7757 11.2456 12.6227 11.1691 12.4697C11.3221 12.3167 11.4751 12.2402 11.6281 12.0872ZM10.1745 12.0107C10.2511 11.8577 10.2511 11.6282 10.1745 11.3987C10.7101 11.7812 11.0161 12.3167 11.0926 12.9287C11.0926 13.4642 10.8631 13.9997 10.4806 14.3823C10.3276 14.1527 10.2511 13.9997 10.2511 13.6937C10.2511 13.3877 10.3276 13.1582 10.4806 12.9287C10.2511 13.0817 10.098 13.3112 10.098 13.6172C10.098 13.8467 10.098 14.1527 10.2511 14.3823H10.0215C9.71554 13.9997 9.71554 13.5407 9.94505 13.1582C10.0215 13.0817 10.2511 12.6992 10.2511 12.6227C10.2511 12.5462 10.2511 12.4697 10.2511 12.4697C10.1745 12.5462 10.1745 12.6227 10.1745 12.6227C10.1745 12.6227 9.86854 13.0052 9.79204 13.0817C9.48604 13.4642 9.48604 13.9997 9.79204 14.3823H9.56254C9.18003 13.9232 9.18003 13.2347 9.63904 12.7757L9.79204 12.6227C9.94505 12.4697 10.0215 12.2402 10.1745 12.0107ZM8.72102 13.6937C8.72102 13.4642 8.79753 13.1582 8.95053 13.0052C9.18003 12.6992 9.25653 12.3167 9.18003 12.0107C9.40954 12.0872 9.63904 12.1637 9.79204 12.3932L9.63904 12.5462L9.48604 12.6992C9.02703 13.1582 8.95053 13.9232 9.33303 14.4588H9.25653C8.95053 14.3057 8.79752 13.9997 8.72102 13.6937ZM9.94505 16.2948L10.1745 21.1909H9.94505L9.71554 16.2948H9.94505ZM10.6336 24.3274C10.6336 24.4804 10.4806 24.6334 10.3276 24.6334C10.1745 24.6334 10.0215 24.4804 10.0215 24.3274L9.94505 22.3384H10.098L10.1745 24.2509C10.1745 24.4039 10.2511 24.4039 10.2511 24.4039V22.2619H10.7101L10.6336 24.3274ZM11.3221 21.7264C11.3221 21.9559 11.1691 22.1089 10.9396 22.1089H9.79204C9.56254 22.1089 9.40954 21.9559 9.40954 21.7264C9.40954 21.4969 9.56254 21.3439 9.79204 21.3439H10.8631C11.0926 21.3439 11.3221 21.5734 11.3221 21.7264ZM10.7866 21.1144H10.2511L10.1745 16.2183H11.0161L10.7866 21.1144ZM10.9396 16.0653H9.79204C9.63904 16.0653 9.40954 15.9888 9.40954 15.7593H11.3986C11.2456 15.9888 11.0926 16.0653 10.9396 16.0653ZM11.3221 15.6063H9.40954C9.18003 15.6063 8.95053 15.3768 8.95053 15.1473C8.95053 14.9178 9.18003 14.6883 9.40954 14.6883H11.3986C11.6281 14.7648 11.7811 14.9943 11.7046 15.2238C11.7046 15.3768 11.4751 15.5298 11.3221 15.6063Z" fill="#B5B5B5"/>
<path d="M9.25549 15.0707C9.17899 14.9942 9.17899 14.8412 9.25549 14.7647C9.10249 14.7647 9.02599 14.9177 9.02599 15.0707C9.02599 15.0707 9.02599 15.0707 9.02599 15.1472C9.10249 15.3767 9.25549 15.3767 9.40849 15.3767H11.0915C11.2445 15.3767 11.321 15.3002 11.3975 15.2237H9.48499C9.40849 15.2237 9.33199 15.2237 9.25549 15.0707Z" fill="#B5B5B5"/>
<path d="M9.7148 21.8029C9.6383 21.7264 9.6383 21.6499 9.7148 21.5734C9.5618 21.5734 9.48529 21.7264 9.5618 21.8029C9.6383 21.9559 9.7148 22.0324 9.8678 22.0324H10.7858C10.8623 22.0324 10.9388 21.9559 11.0153 21.8794H9.9443C9.7913 21.8794 9.7148 21.8794 9.7148 21.8029Z" fill="#B5B5B5"/>
<path d="M20.6554 5.96711V5.3551C20.6554 4.74308 20.5789 4.13107 20.4259 3.51906L20.3494 3.06005C20.3494 2.83055 20.2729 2.60105 20.1964 2.37154V2.21854L20.0434 2.29504C19.8139 2.37154 19.5078 2.44804 19.2018 2.44804L17.9778 2.60105C17.7483 2.60105 17.5188 2.60105 17.2128 2.60105C16.5243 2.60105 15.8358 2.52454 15.1473 2.44804L14.6883 2.29504C14.3823 2.21854 14.0763 2.14204 13.8467 2.06554L13.3112 1.83603C12.5462 1.53003 11.9342 1.22402 11.3222 0.765014L10.7867 0.382507L10.4807 0.0765014L10.3277 0L10.1747 0.153003C10.0982 0.229504 10.0217 0.306005 9.86868 0.382507L9.33317 0.765014C8.72116 1.14752 8.10914 1.53003 7.42063 1.83603L6.88512 2.06554C6.57912 2.14204 6.34961 2.21854 6.04361 2.29504L5.5081 2.44804C4.89609 2.52454 4.28408 2.60105 3.67207 2.60105C3.36606 2.60105 3.06005 2.60105 2.75405 2.60105L1.53003 2.44804C0.994518 2.37154 0.765014 2.29504 0.765014 2.29504L0.459008 2.21854V2.37154C0.459008 2.52454 0.382507 2.75405 0.382507 2.90705L0.229504 3.51906C0.153003 4.13107 0.0765014 4.74308 0.0765014 5.27859V5.8906C0 6.27311 0 6.57912 0 6.88512V7.49713C0 8.49165 0.0765014 9.56267 0.229504 10.5572C0.53551 12.7757 1.14752 14.8413 1.98904 16.9068C3.28956 20.1199 5.7376 24.4804 10.1747 27.2345L10.3277 27.3875L10.4807 27.2345C14.9178 24.4804 17.3658 20.1199 18.5898 16.9068C19.4313 14.8413 19.9669 12.6992 20.3494 10.5572C20.5024 9.56267 20.5789 8.49165 20.5789 7.49713V6.88512C20.6554 6.57912 20.6554 6.27311 20.6554 5.96711ZM15.9123 10.5572L15.8358 10.4042C15.3768 10.5572 14.9178 10.6337 14.3823 10.6337C13.5407 10.6337 12.6992 10.4807 11.8577 10.1747C11.5517 10.0217 11.1692 9.94518 10.8632 9.86868C10.5572 9.79217 10.1747 9.79217 9.86868 9.86868C9.48617 9.94518 9.10366 10.0217 8.72116 10.1747C7.95614 10.5572 7.11463 10.7102 6.27311 10.7102C5.6611 10.6337 5.04909 10.5572 4.43708 10.3277L4.36058 10.4807L4.43708 10.3277L3.90157 10.1747L3.67207 10.0982C3.21306 9.94518 2.75405 9.86868 2.29504 9.86868C1.68303 9.86868 1.14752 10.0217 0.612011 10.3277C0.612011 10.2512 0.612011 10.0982 0.53551 9.94518C1.07102 9.63917 1.68303 9.48617 2.29504 9.48617C2.75405 9.48617 3.21306 9.56267 3.59556 9.63917L4.28408 9.86868L4.36058 9.71567L4.28408 9.86868C4.89609 10.0982 5.5846 10.1747 6.19661 10.2512C7.11463 10.2512 7.95614 10.0982 8.87416 9.79217C9.18016 9.63917 9.56267 9.56267 9.94518 9.48617H10.3277L10.8632 9.56267C11.1692 9.63917 11.4752 9.71567 11.7812 9.79217C12.6227 10.0982 13.5407 10.2512 14.4588 10.2512C14.9943 10.2512 15.5298 10.1747 15.9888 9.94518L16.8303 9.71567L17.1363 9.63917C17.5953 9.56267 18.0543 9.48617 18.5133 9.48617C19.1253 9.48617 19.7374 9.63917 20.2729 9.94518C20.2729 10.0982 20.2729 10.2512 20.1964 10.3277C19.6609 10.0982 19.1253 9.94518 18.5133 9.94518C18.0543 9.94518 17.5188 10.0217 17.0598 10.1747L16.7538 10.2512L15.9123 10.4807V10.5572ZM6.27311 9.40967C6.88512 9.40967 7.42063 9.33317 7.95614 9.18016C8.26215 9.10366 8.56815 9.02716 8.87416 8.87416C9.18016 8.72116 9.56267 8.64465 9.94518 8.56815H10.3277L10.8632 8.64465C11.1692 8.72116 11.4752 8.79766 11.7812 8.87416C12.1637 9.02716 12.5462 9.10366 12.9287 9.18016C13.4642 9.25667 13.9232 9.33317 14.4588 9.33317C14.9943 9.33317 15.5298 9.25667 15.9888 9.02716L16.8303 8.79766L17.1363 8.72116C17.5953 8.56815 18.0543 8.56815 18.5133 8.56815C19.1253 8.56815 19.7374 8.72116 20.3494 9.02716C20.3494 9.18016 20.3494 9.33317 20.3494 9.40967C19.8139 9.10366 19.2018 8.95066 18.5898 8.95066C18.1308 8.95066 17.5953 9.02716 17.1363 9.10366L16.8303 9.18016L15.9888 9.40967C15.5298 9.56267 15.0708 9.63917 14.5353 9.63917C13.6937 9.63917 12.8522 9.48617 12.0107 9.18016L11.4752 9.25667C11.3222 9.18016 11.0927 9.18016 10.9397 9.10366C10.7102 9.10366 10.5572 9.02716 10.3277 9.02716C10.1747 9.02716 10.0217 9.02716 9.86868 9.02716C9.63917 9.02716 9.40967 9.10366 9.25667 9.18016L8.72116 9.33317C7.87964 9.63917 7.03813 9.79217 6.19661 9.79217C5.5846 9.71567 4.97259 9.63917 4.36058 9.40967L3.67207 9.18016C3.21306 9.10366 2.75405 9.02716 2.29504 9.02716C1.68303 9.02716 1.07102 9.18016 0.53551 9.48617C0.53551 9.33317 0.53551 9.25666 0.459008 9.10366C0.994518 8.79766 1.60653 8.64465 2.29504 8.64465C2.75405 8.64465 3.21306 8.72116 3.59556 8.79766L4.28408 9.02716L4.36058 8.87416L4.28408 9.02716C4.97259 9.25667 5.5846 9.40967 6.27311 9.40967ZM10.3277 8.26215C10.1747 8.26215 10.0217 8.26215 9.86868 8.26215C9.48617 8.33865 9.10366 8.41515 8.72116 8.56815C8.03264 8.79766 7.26763 8.95066 6.50262 9.02716C6.73212 7.11463 8.33865 5.5846 10.3277 5.6611C12.2402 5.6611 13.9232 7.11463 14.1528 9.02716C13.3877 9.02716 12.6227 8.87416 11.9342 8.56815C11.6282 8.41515 11.3222 8.33865 10.9397 8.26215C10.7867 8.26215 10.5572 8.26215 10.3277 8.26215ZM15.9888 8.95066L15.9123 8.79766C15.4533 8.95066 14.9943 9.02716 14.5353 9.02716C14.4588 8.64465 14.3823 8.26215 14.2293 7.95614L20.3494 7.49713C20.3494 7.95614 20.3494 8.33865 20.2729 8.64465C19.7374 8.33865 19.0488 8.26215 18.4368 8.26215C17.9778 8.26215 17.4423 8.33865 16.9833 8.41515L16.6773 8.49165L15.8358 8.72116L15.9888 8.95066ZM20.3494 6.88512L14.1528 7.72664C14.0763 7.65014 14.0763 7.49713 13.9997 7.42063L20.3494 6.04361C20.3494 6.27311 20.3494 6.57912 20.3494 6.88512ZM20.0434 3.59556C20.1199 4.20757 20.1964 4.81959 20.1964 5.3551L13.7702 7.19113C13.7702 7.03813 13.6172 6.88512 13.4642 6.73212L20.0434 3.59556ZM18.4368 2.83055C18.8958 2.75405 19.3548 2.67755 19.8904 2.60105L19.9669 2.98355L13.3877 6.57912L13.1582 6.34961L18.4368 2.83055ZM15.1473 2.75405C15.8358 2.90705 16.5243 2.90705 17.2128 2.90705H17.4423L13.0052 6.27311C12.8522 6.12011 12.6227 5.96711 12.4697 5.8906L15.1473 2.75405ZM13.6172 2.37154C13.9997 2.52454 14.3058 2.60105 14.4588 2.60105L12.1637 5.7376L11.7812 5.5846L13.6172 2.37154ZM11.2457 1.22402C11.7812 1.60653 12.3932 1.91253 13.0817 2.21854L11.5517 5.5081C11.2457 5.3551 11.0162 5.3551 10.7102 5.27859L11.2457 1.22402ZM10.3277 0.459008C10.4807 0.53551 10.6337 0.688512 10.7102 0.765014L10.4807 5.27859H10.1747L9.94518 0.841515C10.0982 0.688512 10.2512 0.612011 10.3277 0.459008ZM9.40967 1.22402L9.94518 5.27859C9.63917 5.27859 9.33317 5.3551 9.10366 5.4316L7.57363 2.14204C8.18565 1.91253 8.79766 1.60653 9.40967 1.22402ZM7.03813 2.37154L8.79766 5.5846C8.64465 5.6611 8.56815 5.6611 8.41515 5.7376L6.12011 2.60105C6.50262 2.52454 6.73212 2.44804 7.03813 2.37154ZM3.59556 2.98355C4.20757 2.98355 4.89609 2.90705 5.5081 2.83055L8.18565 5.8906C8.03264 5.96711 7.80314 6.12011 7.65014 6.27311L3.21306 2.98355H3.59556ZM0.765014 2.67755C1.22402 2.75405 1.68303 2.83055 2.14204 2.90705L7.49713 6.42611C7.42063 6.50262 7.34413 6.50262 7.34413 6.57912L0.688512 2.98355L0.765014 2.67755ZM0.612011 3.67207L7.19113 6.80862C7.03813 6.88512 6.96162 7.03813 6.80862 7.26763L0.382507 5.4316C0.382507 4.81959 0.53551 4.28408 0.612011 3.67207ZM0.382507 6.04361L6.73212 7.49713C6.65562 7.57364 6.57912 7.65014 6.57912 7.72664L0.382507 6.88512C0.382507 6.57912 0.382507 6.27311 0.382507 6.04361ZM6.42611 7.95614C6.27311 8.33865 6.19661 8.64465 6.12011 9.02716C5.5081 8.95066 4.97259 8.87416 4.36058 8.64465L3.67207 8.41515C3.21306 8.26215 2.75405 8.26215 2.29504 8.26215C1.68303 8.26215 0.994518 8.41515 0.382507 8.72116C0.382507 8.33865 0.306005 7.95614 0.306005 7.49713L6.42611 7.95614ZM18.3603 16.7538C17.1363 19.8904 14.6883 24.1744 10.3277 26.852C6.04361 24.1744 3.59556 19.8904 2.37154 16.7538C1.60653 14.8413 0.994518 12.7757 0.688512 10.7102C1.14752 10.4042 1.75953 10.2512 2.37154 10.2512C2.83055 10.2512 3.28956 10.3277 3.67207 10.4042L3.82507 10.4807L4.36058 10.6337C4.97259 10.8632 5.5846 10.9397 6.27311 11.0162C7.19113 11.0162 8.10914 10.8632 8.95066 10.5572C9.25667 10.4042 9.63917 10.3277 9.94518 10.2512H10.3277L10.8632 10.3277C11.1692 10.4042 11.4752 10.4807 11.7812 10.5572C12.6227 10.8632 13.5407 11.0162 14.4588 11.0162C14.9943 11.0162 15.5298 10.8632 15.9888 10.7102L16.8303 10.4807L17.1363 10.4042C17.5953 10.3277 18.0543 10.2512 18.5133 10.2512C19.0488 10.2512 19.6609 10.4042 20.1199 10.7102C19.7374 12.7757 19.1253 14.7648 18.3603 16.7538Z" fill="#B5B5B5"/>
</svg>
